<?xml version="1.0" encoding="utf-8"?>
<!-- Generator: Adobe Illustrator 15.1.0, SVG Export Plug-In . SVG Version: 6.00 Build 0)  -->
<!DOCTYPE svg PUBLIC "-//W3C//DTD SVG 1.1//EN" "http://www.w3.org/Graphics/SVG/1.1/DTD/svg11.dtd">
<svg version="1.1" id="svg2" xmlns:svg="http://www.w3.org/2000/svg"
     xmlns="http://www.w3.org/2000/svg" xmlns:xlink="http://www.w3.org/1999/xlink" x="0px" y="0px" width="700px"
     height="480px"
     viewBox="0 0 700 480" enable-background="new 0 0 700 480" xml:space="preserve">
<g id="layer1">
	<path id="upperBorder" fill="none" stroke="#0057b7" opacity="0.5" stroke-width="4" d="M96.37,76.174c-0.456-0.678-1.387-2.448-1.387-3.929
		c0-1.034-0.694-1.686-0.694-3.005c0-1.201-0.036-2.399,0.231-3.467c0.181-0.724,2.682-0.555,3.236-0.693
		c1.008-0.252,2.422,0,3.467,0c1.126,0,1.887,0.934,2.774,1.155c1.023,0.256,0.881,0.925,2.543,0.925c1.155,0,2.311,0,3.467,0
		c1.464,0,2.928,0,4.392,0c0.984,0,1.536-2.46,2.081-3.005c1.162-1.162,2.08-1.165,2.08-3.005c0-1.511-0.114-2.198,0.925-3.236
		c0.956-0.956,2.032-2.032,2.773-2.774c1.184-1.184,1.69-1.387,3.467-1.387c1.296,0,2.58,0.231,3.93,0.231c1.156,0,2.312,0,3.467,0
		s2.312,0,3.467,0s2.312,0,3.467,0s2.312,0,3.467,0s2.312,0,3.467,0c1.233,0,2.466,0,3.698,0c1.405,0,0.196-1.627,2.081-1.156
		c1.217,0.305,1.056,0.875,2.08,1.387c1.06,0.529,2.182,0.462,3.467,0.462c1.156,0,2.312,0,3.467,0c0.841,0,1.412,0.924,2.774,0.924
		c1.156,0,2.312,0,3.467,0c1.243,0,1.953-0.321,3.236,0c1.118,0.28,2.412,0.199,3.467,0.462c1.008,0.252,2.422,0,3.467,0
		c0.948,0,1.769,0.673,2.774,0.924c0.511,0.128,1.174,2.58,1.387,3.005c0.493,0.987,1.916,0.693,3.005,0.693
		c1.156,0,2.312,0,3.467,0c0.142,0,1.98,1.601,2.312,1.849c0.785,0.589,1.176,0.693,2.774,0.693c1.273,0,2.555-0.055,3.698,0.231
		c1.386,0.347,2.467,0.155,3.236,0.924c0.251,0.25,2.427,0.982,2.774,1.156c0.813,0.406,0.152,1.849,2.081,1.849
		c1.156,0,2.312,0,3.467,0s1.652-1.8,2.773-2.08c1.394-0.348,2.176,0.19,2.543,0.924c0.65,1.301,1.156,1.926,1.156,3.467
		c0,0.861,0.553,2.725,0.924,3.467c0.39,0.779,1.618,1.089,1.618,2.774c0,1.505,2.198,1.126,3.005,0.925
		c1.553-0.389,1.902,0.178,2.774-0.694c0.848-0.848,1.537-1.135,2.542-1.387c1.056-0.264,2.55,0.291,3.236,0.462
		c1.418,0.354,1.618,0.878,1.618,2.312c0,1.148,0.231,2.23,0.231,3.467c0,1.85,0.279,1.457,1.849,1.849
		c0.904,0.226,2.102-0.935,3.005-1.387c1.042-0.521,0.694-2.147,0.694-3.236c0-1.561,0.491-1.849,2.08-1.849
		c0.502,0,1.737,1.737,2.081,2.08c0.313,0.313,3.163,0.098,3.698,0.231c1.384,0.346,1.855-0.931,2.543-1.618
		c0.68-0.68,1.563-0.782,2.312-1.156c1.31-0.655,2.192,0.456,2.542,1.156c0.485,0.97,1.297,1.113,1.849,1.849
		c0.772,1.544-1.293,2.081,1.618,2.081c1.041,0,1.743-1.281,2.542-2.081c0.56-0.559,2.436-0.231,3.236-0.231
		c0.672,0,1.129,1.605,2.08,2.08c0.847,0.424,0.462,2.638,0.462,3.467c0,1.611-0.125,2.081,1.618,2.081
		c0.061,0,0.545,1.618,2.08,1.618c1.497,0,1.387-1.792,1.387-3.005c0-1.439-0.108-2.204,0.693-3.005
		c0.74-0.74,0.817-1.387,2.542-1.387c1.281,0,1.817-0.43,2.543-1.156c0.798-0.798,1.6-1.262,2.773-1.849
		c0.937-0.468,1.714-0.462,3.005-0.462c1.754,0,1.618,0.147,1.618,1.849c0,1.678,0.189,2.038,1.156,3.005
		c1.088,1.088,0.968,1.098,1.387,2.774c0.252,1.008,0,2.422,0,3.467c0,1.33,1.419,1.156,2.542,1.156c1.156,0,2.312,0,3.467,0
		c0.889,0,1.923-1.766,2.081-2.08c0.351-0.702,1.992-1.25,2.542-1.387c1.129-0.282,0.863-1.313,2.08-1.618
		c1.189-0.297,2.474,0.197,3.005,0.462c1.282,0.641-0.751,1.849,1.618,1.849c1.156,0,2.312,0,3.468,0
		c1.252,0,1.373-0.693,3.005-0.693c1.232,0,2.466,0,3.698,0c1.156,0,2.312,0,3.467,0c1.35,0,2.262-0.025,3.236,0.462
		c0.753,0.376,1.031,2.292,1.387,3.005c0.606,1.213,0.867,2.004,1.618,3.005c0.967,1.288,1.34,2.334,2.543,3.236
		c0.69,0.518,2.559,0.524,3.236,0.693c1.011,0.253,1.188-1.42,1.618-1.849c0.784-0.785,1.615-1.145,1.849-2.081
		c0.252-1.008,0-2.422,0-3.467c0-1.393-0.589-2.028-1.618-2.542c-0.763-0.381-0.462-2.105-0.462-3.005
		c0-0.904-1.036-1.96-1.618-2.543c-0.475-0.474-0.231-2.35-0.231-3.236c0-1.486,0.694-1.437,0.694-2.774
		c0-1.554-0.034-2.047,0.693-2.774c1.12-1.12,2.08-0.688,2.08-2.312c0-1.503,1.099-1.561,1.85-2.312
		c0.651-0.652,0.616-1.772,1.617-2.773c0.956-0.956,0.86-1.591,1.156-2.774c0.196-0.785,2.533-1.845,3.005-2.081
		c0.614-0.307,0.299-1.924,1.85-2.312c1.464-0.366,1.155-1.727,1.155-3.005c0-1.321,1.205-1.341,2.312-1.618
		c1.454-0.363,2.716-0.462,4.392-0.462c1.801,0,1.706,0.622,2.774,1.156c1.91,0.955,1.575,0.546,2.312-0.925
		c0.545-1.09,2.891-1.387,3.93-1.387c1.291,0,3.436-0.231,5.085-0.231c1.741,0,3.712-0.17,5.316,0.231
		c1.454,0.363,2.151,0.693,3.698,0.693c0.999,0.25,2.217,1.248,3.698,1.618c1.407,0.352,2.456,0.462,3.93,0.462
		c1.233,0,2.466,0,3.698,0c1.07,0,0.762-2.131,1.618-2.773c0.865-0.649,2.113-1.519,3.236-2.081c0.223-0.111,0-3.093,0-3.467
		c0-1.39,0.462-1.76,0.462-3.005c0-1.415-0.042-2.27,0.693-3.005c1.001-1.001,2.266-1.387,3.699-1.387
		c1.303,0,2.291,0.462,3.698,0.462c0.792,0,1.291,1.427,1.618,2.081c0.273,0.547,2.485,0.462,3.236,0.462c1.155,0,2.311,0,3.467,0
		c1.253,0,1.557,0.693,2.773,0.693c1.668,0,2.127-0.485,3.468-1.156c0.882-0.441,1.704-1.856,2.312-2.312
		c0.138-0.104,0.308-0.154,0.462-0.231c0.919-0.459,1.846-1.383,2.543-2.08c1.235-1.235,1.407-1.146,2.773-0.462
		c1.454,0.727,1.677,1.156,3.468,1.156c0.95,0,1.861-0.693,3.236-0.693c1.143,0,0.693,1.747,0.693,2.774
		c0,1.499,2.599-0.287,2.773-0.462c1.245-1.245,0.837-1.885,2.543-2.312c1.28-0.32,2.269-0.209,3.236-0.693
		c1.203-0.602,2.228,0.11,3.005,0.693c0.507,0.38,0.808,2.31,1.155,3.005c0.356,0.712,1.85,1.33,2.543,1.849
		c1.104,0.828,1.256,1.356,1.849,2.543c0.614,1.228,1.573,1.275,2.081,2.542c0.432,1.08,0.693,2.69,0.693,3.93
		c0,1.108,0.197,2.409,0.462,3.467c0.288,1.152,1.229,1.639,2.08,2.773c0.765,1.019,1.685,1.52,2.312,2.774
		c0.477,0.952,3.326,2.565,4.161,2.774c1.489,0.372,1.816,1.089,2.312,2.08c0.499,0.999,0.693,2.016,0.693,3.236
		c0,1.75-0.233,1.619-1.618,2.312c-0.804,0.402-2.598,0.462-3.698,0.462c-1.628,0-1.736,0.58-2.773,1.618
		c-0.937,0.937-1.156,0.689-1.156,2.543c0,1.02,0.992,1.455,1.618,2.08c0.25,0.25,0.561,2.971,0.693,3.236
		c0.705,1.409,2.312-0.234,2.312,1.849c0,1.507,0.064,2.048-0.925,2.543c-1.046,0.523-0.641,2.061-0.462,2.773
		c0.304,1.215,2.138-0.233,2.543,1.387c0.252,1.008,0,2.422,0,3.467c0,1.159-0.694,1.816-0.694,3.005
		c0,0.798,2.218,0.462,3.006,0.462c1.23,0,1.425-0.039,2.08-0.693 M453.729,95.128c0.67,0,2.791,0,4.16,0
		c1.2,0,1.447-0.97,2.312-1.618c0.877-0.658,2.093,0.697,3.005,0.925c0.979,0.244,2.528,0.054,3.236,0.231
		c0.795,0.199,0.886,1.483,1.618,1.849c1.011,0.506,2.575,0.231,3.698,0.231c1.156,0,2.312,0,3.468,0
		c1.207,0,1.845-0.686,2.312-1.618c0.345-0.691,4.088-0.191,4.854,0c1.612,0.403,1.85-0.019,1.85,1.849c0,1.156,0,2.312,0,3.467
		c0,1.032,0.67,1.987,0.925,3.005c0.131,0.525,2.955,0.231,3.467,0.231c1.038,0,2.388-1.425,3.236-1.849
		c0.196-0.098,0.231,2.928,0.231,3.236c0,1.421-0.817,1.883-1.156,3.236c-0.343,1.373,0.198,2.729,0.925,3.698
		c0.987,1.317,1.618-0.394,1.618,2.081c0,1.409,1.355,1.725,1.618,2.773c0.386,1.544,0.467,2.321,1.155,3.699
		c0.491,0.983-0.256,2.593-0.462,3.005c-0.454,0.908-1.32,1.352-1.618,2.542c-0.236,0.944,1.25,2.5,1.618,3.236
		c0.449,0.898,0.076,2.463,0.462,3.236c0.578,1.156,1.86,1.794,3.005,2.081c0.967,0.242,1.403-0.917,2.774-0.231
		c1.068,0.534,1.606,1.573,1.849,2.543c0.292,1.167,0.168,2.521,0.463,3.698c0.313,1.255,2.856-0.356,3.698-0.693
		c1.073-0.429,1.288-2.488,1.849-3.236c0.524-0.698,2.213-1.387,3.236-1.387c1.156,0,2.312,0,3.468,0
		c1.506,0,1.921-0.653,3.005-0.925c1.871-0.468,2.309,0.749,3.467,1.618c1.413,1.06,1.85,1.809,1.85,3.467
		c0,1.114,1.888,1.387,2.773,1.387c1.071,0,2.889-0.491,3.698-0.694c1.479-0.37,2.665,0.986,3.93,1.618
		c1.177,0.588,1.744,1.709,2.543,2.774c0.637,0.849,2.543-0.148,2.543-0.925c0-1.354,1.543-1.735,2.312-2.312
		c0.785-0.589,1.937-1.244,2.542-1.849c0.999-0.999,1.768-1.346,2.774-1.849c1.5-0.75,2.404-1.156,4.16-1.156
		c1.48,0,2.251-0.216,3.236-0.462c0.907-0.227,2.349-1.655,2.773-2.08c0.7-0.7,1.291-1.291,1.85-1.85
		c0.746-0.746,1.502-0.896,2.543-1.155c1.008-0.252,2.422,0,3.467,0 M564.913,130.957c1.314,0,2.175,0.611,2.542,2.08
		c0.326,1.304,1.101,1.573,1.388,3.005c0.297,1.485,0.809,1.012,2.312,1.387c1.498,0.375,1.824-1.022,2.312,0.924
		c0.252,1.008,0,2.422,0,3.467c0,1.414,0.003,2.316,0.693,3.236c0.701,0.935,0.784,1.156,2.542,1.156
		c1.386,0,2.155,0.381,2.774,1.618c0.429,0.858,2.643,1.899,3.467,2.312c0.892,0.445,2.152,1.138,2.774,1.387
		c0.842,0.337,1.195,1.779,1.387,2.542c0.293,1.174,1.536,2.155,2.312,2.542c0.776,0.389,2.759-0.111,3.235-0.231
		c0.779-0.195,0.694-2.563,0.694-3.236c0-1.36,0.462-2.139,0.462-3.467c0-2.109,0.783-1.914,2.773-2.312
		c1.123-0.225,1.975-0.598,3.468,0c1.62,0.648,1.434,1.063,0.925,2.08c-0.609,1.217-0.437,2.081,0.924,2.081
		c1.233,0,2.466,0,3.699,0c1.155,0,2.312,0,3.467,0c1.664,0,2.622-0.203,3.468,0.925c0.865,1.154,1.653,1.058,2.773,1.618
		c1.277,0.639,1.919,0.602,2.543,1.849c0.364,0.73,2.972,0.693,3.698,0.693c0.03,0,1.453,0.925,2.543,0.925
		c1.516,0,2.061,0.02,2.773-0.693c0.924-0.924-0.242-1.844,1.155-2.542c1.565-0.783,2.973,0.167,3.468,1.156
		c0.621,1.241,0.169,2.46,0.925,3.467c0.934,1.246,2.037,1.85,3.698,1.85c1.71,0,2.111-0.032,3.005-0.925
		c0.454-0.454,3.263,0.122,3.698,0.231c1.303,0.325,2.543-0.362,2.543,1.387c0,1.429,0.049,2.409,0.462,3.236
		c0.561,1.122,2.227,1.597,3.236,1.849c1.104,0.276,2.419-0.031,3.467,0.231c1.458,0.365,0.896,1.863,2.774,0.925
		c1.13-0.565,2.268-1.213,2.542-2.312c0.132-0.527,2.196-1.012,2.774-1.156c1.008-0.252,2.422,0,3.467,0c0.154,0,0.309,0,0.463,0
		 M665.694,164.474c0.049,0-1.743,2.437-2.08,2.774c-0.836,0.835-1.387,1.362-1.387,2.774c0,1.206-0.039,2.387,0.23,3.467
		c0.082,0.326,2.771,1.501,3.005,1.618c0.941,0.47,1.206,3.023,1.388,3.93c0.228,1.139,0.23,2.261,0.23,3.467
		c0,1.156,0,2.312,0,3.467c0,1.232-1.673,2.295-2.312,2.774c-0.832,0.624-1.59,1.658-2.08,2.312
		c-0.687,0.916-1.188,2.123-1.849,3.005c-0.368,0.49-2.649,0.315-3.236,0.462c-0.649,0.162-1.435,1.989-1.85,2.542
		c-0.348,0.464-1.813,0.724-2.312,1.387c-0.928,1.238-1.298,1.707-0.23,2.774c0.848,0.848,0.234,1.618,2.311,1.618
		c1.259,0,2.408,0.231,3.699,0.231c0.45,0,1.786,0.925,3.005,0.925c1.232,0,2.466,0,3.698,0c1.167,0,0.855-1.115,2.543-0.693
		c1.075,0.269,0.693,2.085,0.693,3.005c0,0.638-2.382,0.693-3.005,0.693c-1.359,0-1.828,0.651-2.312,1.618
		c-0.012,0.023-4.572,0.442-4.623,0.462c-0.961,0.384-1.362,1.38-2.312,1.618c-0.937,0.234-0.925,2.254-0.925,3.236
		c0,1.416-0.463,1.872-0.463,3.236c0,1.156,0,2.311,0,3.467c0,1.467,1.484,0.924,2.774,0.924c0.622,0,1.848-0.693,3.005-0.693
		c0.981,0,0.925,2.269,0.925,3.005c0,1.294,0.568,1.759,1.155,2.542c0.702,0.936-0.17,2.142,0.693,3.005
		c1.002,1.001,1.387,0.135,1.387,2.312c0,1.855-0.307,1.462-1.387,2.542c-0.888,0.888-1.043,1.473,0.463,1.849
		c1.225,0.306,2.652,0.231,3.93,0.231c1.586,0,0.739,1.987,0.462,2.543c-0.199,0.399-1.675,1.539-2.08,2.08
		c-0.782,1.563-1.116,2.693-1.85,4.161c-0.364,0.729,0,2.631,0,3.467c0,1.483-0.168,1.85-1.618,1.85
		c-0.946,0,0.895,2.874,1.156,3.005c0.755,0.377,0.462,1.936,0.462,3.005c0,1.155,0,2.312,0,3.468c0,0.637-1.645,1.74-2.08,1.849
		c-0.992,0.248-2.111,0.231-3.236,0.231c-1.335,0-2.396,0.23-3.698,0.23c-1.376,0-1.94,1.016-2.773,1.85
		c-0.835,0.835-1.501,0.117-2.081-0.463c-0.642-0.641-1.801-0.97-2.542-1.155c-1.129-0.282-2.591,0.024-3.468,0.462
		c-1.147,0.574-1.233,0.926-2.773,0.926c-1.347,0-2.229-0.074-3.005-0.463c-1.412-0.706-1.561-1.314-3.006-0.231
		c-0.908,0.683-2.064,0.462-3.235,0.462c-1.353,0-2.173,0.047-3.005,0.463c-0.831,0.416-0.693,1.727-0.693,2.773
		c0,1.24-0.011,2.814-0.231,3.699c-0.298,1.189-1.156,1.935-1.156,3.467c0,1.296-1.05,1.156-2.312,1.156
		c-1.665,0-1.899,0.05-2.773,0.924c-1.081,1.082-0.46,2.195-1.85,2.543c-0.991,0.248-2.11,0.231-3.235,0.231
		c-1.599,0-1.919,0.382-3.005,0.925c-0.98,0.49-1.181,1.436-1.618,2.311c-0.45,0.899-0.254,2.633-0.463,3.468
		c-0.224,0.896-0.462,2.037-0.462,3.236c0,1.232,0,2.466,0,3.698c0,1.104-0.043,2.481-0.231,3.236
		c-0.295,1.18,0.227,0.924,1.85,0.924c0.799,0,0.462,2.219,0.462,3.006c0,1.236-1.072,1.96-1.849,2.543
		c-1.296,0.971-1.156,2.066-1.156,3.697c0,1.543,0,1.865,0,3.236c0,1.142-1.1,1.85-2.312,1.85c-1.686,0-2.046-0.416-2.773-1.387
		c-0.828-1.104-2.887,0.045-3.93,0.462c-1.256,0.503-3.75,0-5.086,0c-1.712,0-1.982,0.134-2.773,0.925
		c-1.391,1.391-2.082,1.156-4.854,1.156c-1.843,0-1.962,0.921-3.005,2.311c-0.351,0.469-1.768,0.922-2.08,1.156 M585.717,314.028
		c-0.536,0.714-0.694,1.962-0.694,3.468c0,0.918-2.047,2.401-2.542,2.773c-1.143,0.857-0.758,1.691-2.312,2.08
		c-1.595,0.398-2.562-0.805-3.93-0.463c-0.683,0.172-2.154,2.256-2.543,2.774c-0.855,1.141-1.607,1.849-3.005,1.849
		c-0.58,0-2.546,0.579-3.005,0.693c-0.924,0.231-1.876,1.645-2.312,2.081c-1.034,1.034-1.128,1.821-2.08,2.774
		c-1.566,1.564,0.661,1.494-2.543,0.693c-1.575-0.395-2.207-0.842-3.467-1.156c-0.57-0.143-2.954,1.007-3.699,1.156
		c-1.179,0.235-2.17,0.991-3.005,1.617c-1.31,0.982-1.675,2.312-2.542,3.468c-0.856,1.142-1.734,2.196-2.543,3.005
		c-0.578,0.578-2.196,0.115-2.773,0.693c-0.606,0.605-3.139-0.298-3.468-0.463c-1.038-0.519-1.66-1.107-2.773-1.387
		c-1.232-0.308-3.213-0.063-4.392,0.231c-1.344,0.336-1.339,1.155-3.006,1.155c-1.095,0-2.216,1.523-2.773,2.081
		c-1.245,1.245-2.026,1.563-3.236,2.774c-1.117,1.116-1.305,1.766-2.312,2.773c-1.072,1.072-2.134,1.209-3.235,2.311
		c-0.827,0.828-1.578,0.871-2.312,1.85c-0.897,1.195-2.333,1.893-3.006,3.236c-0.216,0.433-1.499,1.962-1.849,2.312
		c-1.05,1.05-1.144,1.394-2.543,0.693c-1.213-0.606-1.583-1.317-2.08-2.312c-0.349-0.695-1.285-1.328-1.85-2.08
		c-0.722-0.963-1.394-1.401-1.849-2.312c-0.633-1.265,1.296-0.825,1.618,0.462c0.309,1.234,0.075,2.23,0.462,3.006
		c0.535,1.069-0.079-2.622-0.925-3.468c-0.184-0.185,0.832,2.034,1.85,2.542c0.503,0.252-0.909-2.295-0.925-2.311
		c-0.272-0.273-0.616-0.463-0.925-0.693c-1.021-0.766,1.618,2.191,1.618,3.467c0,1.326-0.1,2.281-0.462,3.005
		c-0.529,1.058-1.279,1.633-1.85,2.774c-0.692,1.384-1.141,1.371-2.312,2.542c-0.745,0.745-1.479,0.693-2.773,0.693
		c-1.156,0-2.312,0-3.468,0c-1.192,0-1.024,0.431-1.387,1.155 M494.412,364.881c-0.78,0-2.001,2.041-3.005,2.543
		c-0.517,0.258-1.512,1.975-2.312,2.773c-0.771,0.771,0.11,2.306,0.462,2.774c0.874,1.165,2.312-0.747,2.312,1.155
		c0,1.156,0,2.313,0,3.468s0,2.312,0,3.468c0,1.155,0,2.311,0,3.467c0,1.477-0.274,1.893-1.156,2.773
		c-0.71,0.711-1.155,1.205-1.155,2.543c0,0.861,4.718-0.972,5.085-1.156c1.263-0.631,1.388-1.353,1.388-2.773
		c0-1.245-1.564-2.053-2.543-2.543c-1.117-0.559-2.22-2.189-3.005-3.236c-0.751-1.001-1.194-1.464-1.618-2.311
		c-0.352-0.703-1.389-1.158-1.85-1.618c-0.763-0.764-1.316-0.854-2.08-1.618c-0.27-0.27,2.824-2.105,3.236-2.312
		c1.355-0.678-0.646-2.495-0.693-2.543c-0.761-0.761-1.435-0.925-2.774-0.925c-1.142,0-2.333,0.357-3.005,0.693
		c-1.165,0.583-0.671,2.104,0,2.774c1.171,1.171,2.312,0.276,2.312,2.08c0,1.178-0.431,2.28-0.925,2.774
		c-0.755,0.754-1.779,2.01-2.312,2.542c-0.749,0.749-1.567,0.644-2.311,1.388c-0.767,0.766-1.457-2.682-1.618-3.006
		c-0.737-1.475-0.925-1.711-0.925-3.467c0-0.705,2.114-2.115,2.312-2.312c1.069-1.069,1.849,0.32,1.849-1.849
		c0-0.78-2.378-0.463-3.005-0.463c-1.155,0-2.312,0-3.467,0c-0.83,0-1.507-0.724-2.312-0.925c-0.322-0.081,1.433,3.028-0.925,1.849
		c-1.636-0.816-2.343-1.448-3.005-2.773c-0.572-1.145-0.512-2.492-1.85-1.155c-0.859,0.859-1.182,1.207-1.617,2.08
		c-0.436,0.87-0.229,2.302-0.463,3.236c-0.267,1.067-1.932,0.614-2.543,0.462c-1.169-0.292-1.768-1.768-2.542-2.543
		c-0.778-0.777-0.831-1.305-2.081-1.617c-1.333-0.334-2.281,0.794-3.005,1.155c-1.445,0.724-1.029-2.521-3.467-0.693
		c-1.204,0.903-2.021,0.917-2.312,2.081c-0.474,1.893,1.3,1.849,2.543,1.849c1.426,0,2.664-0.204,3.005,1.155
		c0.417,1.668-0.362,2.412,0.693,3.468c0.736,0.736,3.339,0.693,4.392,0.693c1.535,0,2.146-0.595,3.467-0.925
		c1.456-0.363,1.74,1.318,2.313,2.08c0.955,1.275-0.738,2.174,0.924,3.006c1.346,0.672,4.676,0,6.241,0
		c1.684,0,2.6-0.043,3.468-0.693c1.255-0.942,2.08,0.539,2.08,1.387c0,1.432-0.807,1.357-1.85,1.617
		c-0.952,0.238,0.687,1.391,2.081,0.693c1.31-0.654,2.143-1.387,3.698-1.387c0.928,0,0.184,1.944-0.231,2.774
		c-0.041,0.083,2.644-0.2,3.236-1.388c0.623-1.246,0.909-2.988-1.156-0.924c-1.489,1.489-1.938,3.646-2.773,5.316
		c-1.378,2.755,1.33,1.299,2.543,0.693c1.201-0.601,2.505-1.531,3.235-2.08c1.137-0.853,2.528,0.217,3.006,0.693
		c0.351,0.352,0,3.109,0,3.698c0,1.8,0.859,1.849,2.542,1.849c1.42,0,2.449,0.15,3.698,0.463c1.448,0.361,2.142,1.679,3.005,2.543
		c0.748,0.747,0.566,2.604,1.388,3.698c1.022,1.363,1.8,2.493,2.773,3.468c0.612,0.612,0.925,2.217,0.925,3.235
		c0,1.233,0,2.466,0,3.698c0,1.644,0.085,1.971,1.155,2.773c1.317,0.988,3.394,1.156,5.086,1.156c1.368,0,2.897,0.378,4.16,0.693
		c1.183,0.296,2.173,0.463,3.468,0.463c1.534,0,3.463,0.059,4.623-0.231c1.609-0.402,1.913-1.285,2.542-2.542
		c0.65-1.301,1.962-2.313,3.699-2.313c0.756,0,2.157-1.233,2.312-1.849c0.396-1.585,0.144-3.236,1.849-3.236
		c1.696,0,1.988,1.482,2.312,2.774c0.45,1.799,1.127,1.617,3.005,1.617c1.372,0,2.44,0.412,2.774-0.924
		c0.4-1.605-0.584-2.513,1.387-3.006c1.3-0.324,3.773-1,4.623-1.849c0.851-0.852,2.313-1.156,3.467-1.388
		c1.584-0.316,2.892,0.463,4.392,0.463c1.75,0,3.032,0.375,4.623,0.693c1.113,0.223,1.826,0.463,3.236,0.463
		c1.274,0,2.543,0.832,2.543,2.08c0,1.705,0.865,2.543-1.156,2.543c-1.336,0-2.708,0.462-4.16,0.462c-1.188,0-1.635,1.65-2.08,2.542
		c-0.563,1.125-0.694,1.52-0.694,3.006c0,1.155,0,2.311,0,3.467s0,2.312,0,3.468c0,1.41,0.276,2.729-0.693,3.698
		c-1.068,1.068-3.36,1.618-4.854,1.618c-1.741,0-2.452,0.924-3.93,0.924c-1.971,0-4.178,0.231-6.241,0.231c-1.156,0-2.312,0-3.467,0
		c-1.246,0-1.163,0.925-2.543,0.925c-1.812,0-2.472-0.063-3.93-1.156c-0.866-0.649-1.204-1.252-1.618-2.08
		c-0.319-0.638-3.58-1.155-4.161-1.155c-1.395,0-2.46-0.075-3.235-0.463c-1.166-0.583-1.806,1.344-2.312,1.85
		c-0.72,0.72-1.241,1.703-2.081,2.542c-0.126,0.126-1.074,0.385-1.387,0.463 M516.603,429.142c-0.578,0.578-1.618,2.213-1.618,3.93
		c0,1.609,0.323,2.08-1.387,2.08c-1.28,0-1.456,0.763-2.081,1.387c-0.885,0.885-1.589,1.335-3.005,1.618
		c-0.628,0.126-1.662,2.169-1.849,2.543c-0.558,1.114-0.693,1.733-0.693,3.235c0,1.755-0.147,1.618-1.85,1.618
		c-1.378,0-1.717-1.022-2.312-1.618c-0.915-0.914-1.811-0.693-3.236-0.693c-1.567,0-2.879,0.925-4.623,0.925
		c-1.639,0-2.903,0.09-4.392,0.462c-1.543,0.387-2.369,1.85-3.236,3.006c-0.729,0.973-1.895,1.641-2.773,2.08
		c-1.123,0.562-1.795,0.87-2.543,1.618c-1.045,1.045-1.637,1.888-2.312,3.236c-0.574,1.147-0.632,2.529-0.925,3.698
		c-0.31,1.238-0.711,1.653-1.155,2.542c-0.342,0.684-1.785,1.224-2.312,1.618c-1.042,0.781-2.682,1.351-3.93,1.85
		c-1.294,0.518-1.769,1.973-2.543,3.005c-0.688,0.918-1.399,0.693-2.773,0.693c-1.208,0-2.375-0.042-3.468,0.231
		c-1.269,0.317-2.701-0.076-3.929,0.23c-1.115,0.279-2.815,0.231-3.93,0.231c-1.896,0-2.977-0.347-3.93-1.618
		c-0.825-1.101-0.905-1.599-1.618-2.312c-0.511-0.511-2.687-0.23-3.467-0.23c-1.05,0-2.01-1.085-2.543-1.618
		c-0.947-0.948-1.246-1.798-1.85-3.005c-0.445-0.892-0.558-1.659,0-2.774c0.375-0.749,1.59-1.206,2.312-1.387
		c1.561-0.39,2.179,0.666,2.543-1.155c0.226-1.128,0-2.551,0-3.699c0-1.663,0.035-3.521-0.231-4.854
		c-0.31-1.551,0.605-1.762,1.387-2.543c0.753-0.752,0.436-2.435,0.693-3.467c0.329-1.314,0.231-2.77,0.231-4.161
		c0-1.533-0.071-2.455-0.693-3.698c-0.359-0.719-1.379-1.148-1.849-1.618c-0.888-0.888-1.735-1.504-2.312-2.08
		c-0.958-0.957-1.434-1.434-2.081-2.081c-0.673-0.673-1.958-1.155-3.005-1.155c-1.592,0-2.486,0.016-3.698,0.925
		c-0.768,0.575-2.651,0.204-3.467,0c-0.98-0.245-1.85-1.85-2.543-2.543c-0.872-0.872-1.79-1.559-2.543-2.312
		c-0.754-0.755-1.264-1.526-2.312-2.312c-1.017-0.763-1.235-1.311-2.312-1.85c-1.095-0.547-2.093-0.693-3.236-0.693
		c-1.25,0-2.498,0.693-3.929,0.693c-1.358,0-2.53,0.463-3.93,0.463c-1.407,0-1.913,1.449-2.774,2.312
		c-0.638,0.638-2.023-3.01-2.08-3.236c-0.251-1.005-0.693-1.472-0.693-3.005c0-1.115,0.876-2.555,1.387-3.236
		c0.912-1.217,1.638-1.449,3.236-1.85c1.696-0.424,2.34-0.26,3.467-1.387c0.96-0.959,1.757-1.525,2.543-2.311
		c1.001-1.002,2.115-1.23,3.467-2.313c1.2-0.959,2.811-1.539,4.161-2.08c1.604-0.642,2.928-1.426,4.623-1.85
		c1.305-0.326,3.404-1.324,4.392-2.311c0.977-0.977,2.271-1.81,3.005-2.543c0.715-0.715,2.56-0.479,3.468-1.387
		c0.725-0.725,1.645-1.183,2.312-1.85c1.048-1.048,2.495-0.924,3.93-0.924c2.031,0,2.885,0.236,3.93-1.156
		c0.767-1.022,1.155-1.504,1.155-3.006c0-0.996-2.167-1.449-3.005-1.617c-1.541-0.309,0.925-3.052,0.925-4.623
		c0-1.359-1.141-1.834-1.85-2.543c-0.668-0.668-0.462-1.914-0.462-3.005c0-1.224-2.009-0.766-2.543-0.231
		c-0.957,0.957-1.126,2.395-1.387,3.699c-0.365,1.826-0.071,2.063-1.85,1.617c-1.655-0.414-2.979-1.836-3.929-2.311
		c-0.923-0.462-1.893-1.524-3.006-2.081c-0.831-0.415-1.165-0.965-1.387-1.849c-1.23-0.615,0.737-2.564-1.618-1.387
		c-0.505,0.252-1.233,2.389-1.849,3.004c-0.846,0.846-1.553,0.693-3.005,0.693c-0.99,0-1.078-0.924-1.85-0.924
		c-0.833,0-1.247,1.387-2.08,1.387c-1.233,0-2.466,0-3.698,0c-1.156,0-2.312,0-3.468,0c-1.106,0-2.351,0.954-3.236,1.618
		c-1.24,0.931-1.902,1.458-3.467,1.849c-1.024,0.256-2.565-0.006-3.468-0.23c-1.416-0.354-3.26,0.041-4.623-0.231
		c-1.505-0.301-2.194-1.27-3.235-2.312c-0.827-0.826-2.61-1.379-3.236-1.85c-0.89-0.667-1.2-0.969-1.85-1.617
		c-0.823-0.824-2.486-1.1-3.235-1.85c-0.911-0.91-2.439-1.45-3.236-1.85c-1.153-0.576-2.298-1.033-3.468-1.617
		c-1.006-0.504-1.492-1.493-2.08-2.081c-1.073-1.072-2.18,1.354-2.312,1.618c-0.78,1.561,1.451,1.156,2.312,1.156
		c0.508,0,2.023-2.255,2.312-2.543c1.087-1.088,2.32-0.96,2.773-2.773c0.316-1.263,0.82-1.43,1.156-2.774
		c0.199-0.796-2.436-1.564-3.005-1.849c-0.955-0.479-2.544-0.116-3.236-0.463c-1.136-0.567-1.426-1.387-3.005-1.387
		c-0.851,0-2.099,2.33-2.543,2.773c-0.754,0.755-1.652-0.256-2.542-0.924c-1.126-0.845-1.671-1.439-2.312-2.08
		c-0.891-0.891-1.33-1.445-0.463-2.313c0.827-0.826,3.998-0.23,5.086-0.23c1.507,0,2.931,0.23,4.392,0.23
		c1.507,0,4.045,1.117,5.548,1.618c1.247,0.416,3.31,0,4.623,0c1.555,0,3.105-0.181,4.392,0.462c1.132,0.566,2.601,0.693,3.93,0.693
		c1.593,0,2.032,0.049,2.773-0.693c0.868-0.867,0.217-2.065,1.156-3.004c0.972-0.973,2.865-1.591,4.16-1.85
		c1.503-0.301,1.266-1.156-0.462-1.156c-0.905,0-2.655,1.703-3.468,2.313c-0.827,0.62-2.048,0.693-3.236,0.693
		c-1.393,0-1.23-1.619-2.773-1.619c-1.509,0-2.408,0.305-3.236,0.926c-1.296,0.971-2.356-1.337-2.542-2.081
		c-0.381-1.521-1.608-1.155-3.236-1.155c-1.13,0-1.669-1.455-2.312-2.313c-0.724-0.965-1.19-1.686-1.618-2.542
		c-0.481-0.964-0.744-1.669-1.387-2.312c-0.952-0.951,0.925,2.584,0.925,3.93c0,1.377-0.085,2.48-0.463,3.236
		c-0.723,1.445-1.826,1.155-3.236,1.155c-1.104,0-2.481-0.042-3.235-0.231c-1.154-0.288-1.368-0.693-2.774-0.693
		c-1.058,0-1.409,0.925-2.773,0.925c-0.681,0-1.798-1.335-2.08-1.618c-0.893-0.892-0.851-1.016-1.156-2.543
		c-0.264-1.32,2.019-2.48,2.773-3.235c0.95-0.95,2.658-2.312,0.694-2.312c-0.476,0-1.779,2.911-1.85,3.005
		c-0.717,0.956-0.674,1.638-1.85,0.462c-1.049-1.049-1.017-2.403,1.85,0.463c1.275,1.275,0.082,2.502-0.925,3.005
		c-1.126,0.563-1.415,1.104-2.542,1.387 M306.023,341.535c0-0.832-1.248-2.867-1.849-3.467c-0.854-0.854-2.391-1.118-3.468-1.387
		c-0.877-0.22-1.96-1.473-3.467-1.85c-0.308-0.077-0.616-0.154-0.925-0.231c-1.253-0.313-1.967-1.161-2.542-2.312
		c-0.49-0.979-0.966-1.238-1.387-2.08c-0.514-1.027-0.231-2.312,0.231-3.236c0.674-1.348,0.955-1.819,0-2.773
		c-0.771-0.771-1.682-0.758-2.312-1.387c-1.049-1.05-2.138-1.705-0.462-2.543c1.182-0.591,1.156-1.402,1.156-2.773
		c0-1.572,0.17-1.958,0.693-3.006c0.716-1.432,0.925-1.713,0.925-3.467c0-0.808-1.616-1.271-2.312-1.618
		c-1.338-0.669-1.859,1.194-2.081,2.08c-0.435,1.742-0.152,1.339-1.156,0c-0.551-0.734-1.353-1.583-2.08-2.312
		c-0.938-0.938-1.413-1.868-2.312-2.543c-1.121-0.84-1.723-1.723-2.312-2.311c-0.79-0.791-1.69-0.996-2.543-1.85
		c-0.977-0.977-1.724-0.887-2.08-2.312c-0.244-0.975,0.076-2.616,0.231-3.236c0.257-1.026,0.262-2.433,0.462-3.235
		c0.348-1.393,0.483-1.893,0.925-2.774c0.292-0.585,1.094-0.802,1.387-1.387c0.496-0.991,0.693-1.245,0.693-2.774
		c0-1.396-0.227-2.062-0.462-3.004c-0.184-0.736,0.924-1.322,0.924-2.081c0-0.382-1.156-1.706-1.156-3.005
		c0-1.638-0.126-1.766-1.387-2.08c-1.249-0.313-0.834-1.086-2.081-0.463c-1.282,0.642,0.752,1.85-1.618,1.85
		c-1.363,0-1.794-0.639-2.542-1.387c-0.821-0.821-1.446-1.929-2.081-2.773c-0.791-1.055-0.718-1.875-1.618-2.774
		c-0.834-0.834-1.41-1.896-1.85-2.774c-0.448-0.896-1.576-1.113-2.08-1.617c-0.57-0.57-1.938-1.085-2.542-1.387
		c-1.125-0.563-1.52-0.693-3.005-0.693c-1.326,0-2.28,0.1-3.005,0.462c-0.637,0.318-1.026,2.978-1.156,3.235
		c-0.585,1.172-2.441-0.748-2.542-1.155c-0.414-1.655,0.398-2.511-1.387-1.618c-1.448,0.725-1.547,0.43-1.85-1.387
		c-0.063-0.375,1.618-1.33,1.618-2.543c0-1.178-1.873-1.682-2.542-1.849c-1.31-0.327-2.114,0.958-2.543,1.387
		c-1.265,1.266-0.576,0.579-1.849-0.693c-0.879-0.88-1.083-1.155-2.542-1.155c-0.683,0-1.24-2.018-1.387-2.313
		c-0.304-0.607-1.611-1.152-2.08-1.387c-1.074-0.537-1.838-1.266-2.542-1.617c-1.055-0.527-1.854-1.392-2.543-2.081
		c-0.904-0.904-1.512-1.974-2.08-2.542c-0.584-0.585-2.337-0.476-3.236-0.926c-0.871-0.435-2.202-0.23-3.236-0.23
		c-0.897,0-2.182-0.231-3.236-0.231c-0.308,0-0.616,0-0.925,0c-0.602,0-0.572-1.241-1.156-1.387
		c-1.456-0.364-2.208,1.052-3.005,1.849c-0.919,0.92-2.814-0.543-3.005-0.924c-0.239-0.479-1.387,3.14-1.387,3.698
		c0,1.629-0.89,1.387-2.312,1.387c-1.507,0-2.263,0.049-3.236-0.925c-0.979-0.979-0.491-1.617-2.312-1.617
		c-2.279,0-2.08,0.461-2.542,2.311c-0.346,1.385-2.563-0.588-3.236-0.924c-1.254-0.627-0.706-1.387-2.542-1.387
		c-1.72,0-1.479,0.369-1.849,1.849c-0.252,1.008,0,2.423,0,3.468c0,1.404-0.727,1.42-1.618,2.311
		c-1.237,1.237-1.383,1.387-3.236,1.387c-0.835,0-1.673-0.648-2.773-0.924c-1.402-0.351-2.612,0.497-3.467,0.924
		c-1.075,0.538-1.973-0.053-3.005,0.463c-1.198,0.6-1.894,0.82-3.236,1.156c-1.261,0.314-1.643,1.205-2.081,2.08
		c-0.419,0.838-0.231,2.471-0.231,3.467c0,1.604-0.048,2.08-1.618,2.08c-0.908,0-1.192,1.619-2.774,1.619
		c-1.569,0-2.902,0.462-4.392,0.462c-1.541,0-3.082,0-4.623,0c-1.522,0-2.805,0.585-4.161,0.925
		c-1.453,0.363-1.909,1.155-3.699,1.155c-1.155,0-2.312,0-3.467,0c-1.156,0-2.312,0-3.467,0s-2.312,0-3.467,0s-2.312,0-3.467,0
		c-1.492,0-2.09,1.395-3.005,2.081c-0.901,0.676-1.521,1.545-2.542,2.311c-0.667,0.5-0.832,1.758-1.387,2.313
		c-0.978,0.977-1.321,1.799-2.312,2.542c-0.797,0.598-2.939,0.231-3.93,0.231c-1.631,0-3.181,0.027-4.161-0.463
		c-0.873-0.436-0.693-2.604-0.693-3.467c0-0.858-1.778-2.24-2.081-2.543c-0.663-0.662-1.48-1.248-2.08-1.85
		c-1.013-1.012-1.395-2.32-2.081-3.235c-0.692-0.923-0.96-1.423-1.618-2.081c-0.83-0.829-1.823-1.136-2.774-1.849
		c-1.326-0.995-3.012,0.468-3.929,1.155c-0.847,0.635-2.419,0.952-3.236,1.156c-1.144,0.286-2.745,0-3.93,0
		c-1.245,0-2.545-0.001-3.467-0.23c-1.166-0.293-2.013-2.245-2.542-2.774c-0.345-0.346-2.918,0-3.467,0
		c-1.732,0-2.122-0.042-3.236-1.155c-0.75-0.751-1.598-1.492-2.312-1.85c-1.168-0.584-3.259-0.231-4.623-0.231
		c-1.298,0-2.358-0.231-3.699-0.231c-1.156,0-2.312,0-3.467,0c-1.694,0-1.701-1.007-2.542-1.849
		c-0.776-0.776-1.273-1.966-1.849-2.543c-0.8-0.8-2.048-1.123-2.774-1.849c-0.947-0.947-2.015-0.984-3.467-0.693
		c-1.603,0.32-2.675,2.149-3.005,3.467c-0.264,1.055-1.235,1.311-1.849,1.618 M54.532,259.708c-0.318,1.272-3.001-0.696-3.93,0.231
		c-1.668,1.668-1.387-0.424-1.387-2.081c0-1.345,0.231-1.97,0.231-3.235c0-0.518-2.738-1.947-3.005-2.081
		c-1.156-0.577-1.651-0.858-3.236-0.462c-1.578,0.395-1.412-1.644-2.543-2.773c-0.655-0.656-1.265-2.762-1.618-3.468
		c-0.228-0.455-2.082-1.156-2.543-1.388c-1.597-0.798-3.262-1.182-4.161-2.08c-1.154-1.154-1.462-3.075-1.849-4.623
		c-0.33-1.319-0.639-2.516-2.081-3.236c-1.486-0.743-1.618-1.195-1.618-2.773c0-1.375,1.849-2.284,1.849-3.93
		c0-1.104,0.572-2.422,1.156-3.005c0.798-0.798,1.294-1.225,2.542-1.849c1.223-0.612,2.001-1.922,2.542-3.005
		c0.683-1.365,1.035-2.75,1.387-4.161c0.321-1.286-0.029-2.471,0.462-3.698c0.623-1.559,1.005-1.93,2.312-3.236
		c0.853-0.853,2.062-1.369,3.005-2.312c0.883-0.883,0.887-1.699,1.156-2.773c0.375-1.503-0.419-2.102,0.924-2.774
		c1.534-0.767-0.963-2.264,2.543-1.387c2.06,0.515,3.527,1.618,5.547,1.618c1.344,0,2.535,0.454,3.236,1.156
		c0.599,0.599,0,2.434,0-0.231c0-1.409,0.12-2.383-0.693-3.467c-0.713-0.951-1.12-1.777-1.618-2.774
		c-0.437-0.873-0.462-1.724-0.462-3.005c0-1.156,0-2.312,0-3.467c0-1.26,0.231-2.268,0.231-3.467c0-1.233,0-2.466,0-3.698
		c0-1.156,0-2.312,0-3.467 M51.758,179.499c0-1.23,0-4.044,0-6.01c0-1.896,2.87-2.162,4.392-2.542
		c1.129-0.282,1.735-2.044,2.312-3.005c0.866-1.443,0.358-2.176,2.081-3.467c1.409-1.057,2.799-1.875,3.929-3.005
		c1.483-1.483,2.949-2.199,3.93-4.161c0.915-1.83,2.589-3.328,3.467-5.085c0.692-1.384,1.898-2.175,3.005-3.005
		c1.206-0.905,2.226-1.937,3.236-2.543c1.252-0.751,1.986-1.292,3.005-2.312c1.2-1.2,3.483-1.403,4.623-2.542
		c0.885-0.885,1.681-1.625,2.542-2.774c0.975-1.3,2.194-1.992,3.236-2.773c0.97-0.728,1.479-1.318,2.542-1.85
		c1.433-0.716,1.109-1.155,3.236-1.155c1.271,0,2.563,0.052,3.698-0.231c0.704-0.176,1.378-1.6,1.618-2.08
		c0.516-1.032,1.355-1.818,1.849-2.312c0.724-0.724,1.442-1.46,2.081-2.312c0.732-0.976,0.924-1.541,0.924-3.005
		c0-1.571,0.462-2.695,0.462-4.161c0-1.382-0.851-2.213-1.618-3.236c-0.687-0.916-1.163-1.633-1.618-2.543
		c-0.665-1.329-0.423-2.159,0-3.005c0.544-1.088,2.353-0.693,3.699-0.693c2.379,0,0.687-1.162-0.231-2.081
		c-0.922-0.922-1.446-1.044-2.08-2.312c-0.613-1.225-0.805-2.293-1.156-3.698c-0.439-1.755-1.409-3.554-1.849-5.316
		c-0.385-1.538-0.715-2.123-1.387-3.467c-0.438-0.877-1.26-1.757-1.849-2.542c-0.837-1.117-1.478-2.494-2.081-3.699
		c-0.503-1.006-1.808-2.23-2.312-3.236c-0.507-1.016-0.693-1.534-0.693-3.005c0-1.165,0.231-2.419,0.231-3.699
		c0-1.224-0.006-2.288,0.231-3.236c0.284-1.134-0.021-2.583-0.462-3.467c-0.477-0.954-0.671-1.066-0.924-2.081 M304.826,340.248
		c-0.313,0.477,0.375,2.498,0.375,3.943c0,1.251,0,2.503,0,3.754c0,1.064,0,2.129,0,3.192c0,1.464,0.751,2.487,0.751,3.942
		c0,1.113,0.481,1.676,1.502,2.441c1.034,0.775,2.395,1.572,3.38,2.064c0.896,0.449,1.127,1.568,1.127,2.441
		c0,1.563-1.81,0.938-3.192,0.938c-1.188,0-2.378,0-3.567,0c-1.101,0-1.896,0.39-2.628,0.938c-1.184,0.888-2.746-0.383-3.192-1.126
		c-0.582-0.972-0.523-1.987-0.938-2.816c-0.587-1.173-1.602-1.214-2.253-0.563c-0.72,0.721-1.145,2.409-1.502,3.004
		c-0.629,1.05-1.99-0.111-2.628-0.75c-0.909-0.91-0.634-2.213-1.689-3.005c-0.969-0.726-2.095-1.008-3.004-1.689
		c-0.486-0.364-3.79,2.562-4.13,2.816c-1.109,0.832-2.308,1.375-3.567,1.689c-1.45,0.362-2.004-2.571-2.253-3.567
		c-0.205-0.818,0-1.967,0-2.816c0-1.415-2.586,0.167-3.004,0.376c-0.995,0.497-2.37,0.868-3.004,1.502
		c-0.896,0.896-2.108,1.17-3.004,2.065c-0.675,0.675-0.379,2.237-0.188,3.004c0.276,1.102,0.751,1.766,0.751,3.004
		c0,1.127,0,2.253,0,3.379c0,1.115,0.634,2.098,1.314,3.005c0.75,1.001,0.751,1.267,0.751,2.816c0,1.78-0.76,2.271-1.502,3.755
		c-0.546,1.092-1.572,1.593-1.877,2.816c-0.309,1.235,0.311,1.631-0.188,2.629c-0.735,1.469-3.177,1.877-4.694,1.877
		c-0.837,0-1.547,1-2.065,1.689c-0.57,0.761-0.375,1.929-0.375,3.004c0,2.176-0.015,2.029-1.314,3.004
		c-1.276,0.957-2.065,0.689-3.004,2.254c-0.792,1.318-1.198,2.458-2.628,2.816c-1.605,0.4-1.83,0.561-2.816,1.877
		c-0.624,0.832-0.085,2.458,0.188,3.004c0.442,0.884,0.563,2.713,0.563,3.756c0,1.611-2.638,2.445-3.755,3.004
		c-1.255,0.627-3.628,0.627-4.882,0c-1.189-0.595-2.087,0.198-2.816,0.563c-0.934,0.468-0.564,2.812-0.375,3.568
		c0.271,1.084,1.564,2.314,2.253,3.004c0.752,0.752,2.945,1.941,3.943,2.44c0.624,0.312,1.829,2.438,2.253,3.004
		c0.707,0.943,2.807,1.274,3.942,1.502c1.261,0.252,2.366,1.014,3.567,1.314c1.004,0.251,1.87,0.375,3.004,0.375
		c1.688,0,1.502-0.13,1.502-1.689c0-1.145-0.083-2.299,0.188-3.38c0.341-1.365,1.483-0.938,2.816-0.938
		c1.239,0,1.523,2.108,1.877,2.816c0.462,0.925,2.043,0.668,3.004,0.188c1.273-0.636,2.356-1.156,3.567-2.065
		c1.35-1.012,3.369-1.533,4.882-2.44c0.839-0.503,2.222-1.071,3.192-1.314c1.521-0.38,2.41-0.938,4.318-0.938
		c1.385,0,2.678-0.131,3.943,0.375c1.153,0.462,1.656,1.148,2.629,1.878c0.888,0.667,1.619,1.781,1.877,2.816
		c0.221,0.886,0.188,1.837,0.188,2.816c0,1.137,0.12,2.17,0.375,3.191c0.264,1.056,1.938,0.939,3.004,0.939
		c0.432,0,0.904-2.636,1.126-3.192c0.362-0.906,1.467-1.843,2.253-2.628c0.87-0.87,0.646-2.489,0.375-3.567
		c-0.349-1.397-1.139-2.078-2.065-3.004c-0.774-0.775-2.144-1.608-3.004-2.254c-0.975-0.73-1.229-2.832-1.69-3.755
		c-0.379-0.759-0.55-1.938-0.751-2.44c-0.497-1.242,0.096-3.574,0.375-4.693c0.292-1.166,0.104-2.479,0.375-3.568
		c0.213-0.853,1.575-1.538,2.253-1.877c0.791-0.396,1.69,4.458,1.69,5.445c0,1.477-0.105,2.836,1.314,3.191
		c0.501,0.125,1.002,0.25,1.502,0.375c1.352,0.338,1.805-0.979,2.254-1.877c0.598-1.195-0.507-2.947-0.939-3.38
		c-1.143-1.144-1.255-1.657,0.376-2.065c1.182-0.295,1.763,0.303,2.628-0.563c0.718-0.718,0.528-2.113,0.751-3.005
		c0.223-0.89,1.282-1.094,1.878-1.689c0.608-0.608,2.19-0.923,3.004-1.126c0.915-0.229,1.968,0.982,2.629,1.313
		c0.807,0.403,1.351-1.502,2.253-1.502c0.975,0,2.118-0.013,2.816-0.188c0.661-0.165,1.515-1.716,1.689-2.065
		c0.576-1.152,0.961-1.545,1.502-2.629c0.538-1.074,0.797-2.063,1.502-3.004c0.453-0.604,0.93-1.276,1.127-2.064
		c0.22-0.879,0-2.098,0-3.005c0-1.297-0.491-2.108-0.938-3.004c-0.333-0.664-1.034-1.268-1.878-1.689
		c-0.687-0.344-1.189-1.19-1.689-1.69c-0.877-0.876-1.395-1.207-2.065-1.877c-0.767-0.766-1.187-1.52-1.878-2.441
		c-1.033-1.378-1.27-3.549-1.877-5.068c-0.546-1.363-0.776-0.914,0.188-1.878c0.792-0.792,0.94-1.126,2.065-1.126
		c1.232,0,1.759-0.119,2.44,0.563c0.414,0.414,0.975,1.574,1.127,1.877c0.412,0.826,1.589,0.727,1.877,1.879
		c0.295,1.178,0.375,2.189,1.127,3.191c0.514,0.686,1.232,0.897,2.065,1.314c0.275,0.137,0.697,2.791,0.751,3.004
		c0.216,0.863,1.531,0.979,2.064,1.689c0.729,0.973,0.525,1.127,2.065,1.127c0.734,0,1.675-1.295,2.253-2.066
		c0.533-0.709,0.553-2.209,0.751-3.004c0.311-1.24,0.844-1.664,1.878-2.44c0.713-0.534,1.355-0.993,1.878-1.689
		c0.619-0.825,0.563-2.358,0.563-3.38c0-0.938,0-1.877,0-2.816c0-0.908,0.376-1.776,0.376-2.816c0-1.264,0.762-1.744,1.689-2.44
		c1.009-0.757,3.066-0.376,4.318-0.376c2.494,0,1.923-0.304,3.567-1.126c1.294-0.647,2.016-1.323,3.004-2.065
		c0.726-0.544,3.972,0,5.258,0c0.876,0,1.752,0,2.628,0 M355.707,350.574c1.131,0,1.973,0.939,3.191,0.939
		c1.491,0,1.114-0.363,1.878-1.127c0.592-0.592,0.851-1.326,1.126-1.877"/>
</g>

    <g id="lowerBorder" transform="translate(0, 10) scale(0.98, 0.98)">
        <path fill="none" stroke="#ffd700" opacity="0.5" stroke-width="4" d="M96.37,76.174c-0.456-0.678-1.387-2.448-1.387-3.929
		c0-1.034-0.694-1.686-0.694-3.005c0-1.201-0.036-2.399,0.231-3.467c0.181-0.724,2.682-0.555,3.236-0.693
		c1.008-0.252,2.422,0,3.467,0c1.126,0,1.887,0.934,2.774,1.155c1.023,0.256,0.881,0.925,2.543,0.925c1.155,0,2.311,0,3.467,0
		c1.464,0,2.928,0,4.392,0c0.984,0,1.536-2.46,2.081-3.005c1.162-1.162,2.08-1.165,2.08-3.005c0-1.511-0.114-2.198,0.925-3.236
		c0.956-0.956,2.032-2.032,2.773-2.774c1.184-1.184,1.69-1.387,3.467-1.387c1.296,0,2.58,0.231,3.93,0.231c1.156,0,2.312,0,3.467,0
		s2.312,0,3.467,0s2.312,0,3.467,0s2.312,0,3.467,0s2.312,0,3.467,0c1.233,0,2.466,0,3.698,0c1.405,0,0.196-1.627,2.081-1.156
		c1.217,0.305,1.056,0.875,2.08,1.387c1.06,0.529,2.182,0.462,3.467,0.462c1.156,0,2.312,0,3.467,0c0.841,0,1.412,0.924,2.774,0.924
		c1.156,0,2.312,0,3.467,0c1.243,0,1.953-0.321,3.236,0c1.118,0.28,2.412,0.199,3.467,0.462c1.008,0.252,2.422,0,3.467,0
		c0.948,0,1.769,0.673,2.774,0.924c0.511,0.128,1.174,2.58,1.387,3.005c0.493,0.987,1.916,0.693,3.005,0.693
		c1.156,0,2.312,0,3.467,0c0.142,0,1.98,1.601,2.312,1.849c0.785,0.589,1.176,0.693,2.774,0.693c1.273,0,2.555-0.055,3.698,0.231
		c1.386,0.347,2.467,0.155,3.236,0.924c0.251,0.25,2.427,0.982,2.774,1.156c0.813,0.406,0.152,1.849,2.081,1.849
		c1.156,0,2.312,0,3.467,0s1.652-1.8,2.773-2.08c1.394-0.348,2.176,0.19,2.543,0.924c0.65,1.301,1.156,1.926,1.156,3.467
		c0,0.861,0.553,2.725,0.924,3.467c0.39,0.779,1.618,1.089,1.618,2.774c0,1.505,2.198,1.126,3.005,0.925
		c1.553-0.389,1.902,0.178,2.774-0.694c0.848-0.848,1.537-1.135,2.542-1.387c1.056-0.264,2.55,0.291,3.236,0.462
		c1.418,0.354,1.618,0.878,1.618,2.312c0,1.148,0.231,2.23,0.231,3.467c0,1.85,0.279,1.457,1.849,1.849
		c0.904,0.226,2.102-0.935,3.005-1.387c1.042-0.521,0.694-2.147,0.694-3.236c0-1.561,0.491-1.849,2.08-1.849
		c0.502,0,1.737,1.737,2.081,2.08c0.313,0.313,3.163,0.098,3.698,0.231c1.384,0.346,1.855-0.931,2.543-1.618
		c0.68-0.68,1.563-0.782,2.312-1.156c1.31-0.655,2.192,0.456,2.542,1.156c0.485,0.97,1.297,1.113,1.849,1.849
		c0.772,1.544-1.293,2.081,1.618,2.081c1.041,0,1.743-1.281,2.542-2.081c0.56-0.559,2.436-0.231,3.236-0.231
		c0.672,0,1.129,1.605,2.08,2.08c0.847,0.424,0.462,2.638,0.462,3.467c0,1.611-0.125,2.081,1.618,2.081
		c0.061,0,0.545,1.618,2.08,1.618c1.497,0,1.387-1.792,1.387-3.005c0-1.439-0.108-2.204,0.693-3.005
		c0.74-0.74,0.817-1.387,2.542-1.387c1.281,0,1.817-0.43,2.543-1.156c0.798-0.798,1.6-1.262,2.773-1.849
		c0.937-0.468,1.714-0.462,3.005-0.462c1.754,0,1.618,0.147,1.618,1.849c0,1.678,0.189,2.038,1.156,3.005
		c1.088,1.088,0.968,1.098,1.387,2.774c0.252,1.008,0,2.422,0,3.467c0,1.33,1.419,1.156,2.542,1.156c1.156,0,2.312,0,3.467,0
		c0.889,0,1.923-1.766,2.081-2.08c0.351-0.702,1.992-1.25,2.542-1.387c1.129-0.282,0.863-1.313,2.08-1.618
		c1.189-0.297,2.474,0.197,3.005,0.462c1.282,0.641-0.751,1.849,1.618,1.849c1.156,0,2.312,0,3.468,0
		c1.252,0,1.373-0.693,3.005-0.693c1.232,0,2.466,0,3.698,0c1.156,0,2.312,0,3.467,0c1.35,0,2.262-0.025,3.236,0.462
		c0.753,0.376,1.031,2.292,1.387,3.005c0.606,1.213,0.867,2.004,1.618,3.005c0.967,1.288,1.34,2.334,2.543,3.236
		c0.69,0.518,2.559,0.524,3.236,0.693c1.011,0.253,1.188-1.42,1.618-1.849c0.784-0.785,1.615-1.145,1.849-2.081
		c0.252-1.008,0-2.422,0-3.467c0-1.393-0.589-2.028-1.618-2.542c-0.763-0.381-0.462-2.105-0.462-3.005
		c0-0.904-1.036-1.96-1.618-2.543c-0.475-0.474-0.231-2.35-0.231-3.236c0-1.486,0.694-1.437,0.694-2.774
		c0-1.554-0.034-2.047,0.693-2.774c1.12-1.12,2.08-0.688,2.08-2.312c0-1.503,1.099-1.561,1.85-2.312
		c0.651-0.652,0.616-1.772,1.617-2.773c0.956-0.956,0.86-1.591,1.156-2.774c0.196-0.785,2.533-1.845,3.005-2.081
		c0.614-0.307,0.299-1.924,1.85-2.312c1.464-0.366,1.155-1.727,1.155-3.005c0-1.321,1.205-1.341,2.312-1.618
		c1.454-0.363,2.716-0.462,4.392-0.462c1.801,0,1.706,0.622,2.774,1.156c1.91,0.955,1.575,0.546,2.312-0.925
		c0.545-1.09,2.891-1.387,3.93-1.387c1.291,0,3.436-0.231,5.085-0.231c1.741,0,3.712-0.17,5.316,0.231
		c1.454,0.363,2.151,0.693,3.698,0.693c0.999,0.25,2.217,1.248,3.698,1.618c1.407,0.352,2.456,0.462,3.93,0.462
		c1.233,0,2.466,0,3.698,0c1.07,0,0.762-2.131,1.618-2.773c0.865-0.649,2.113-1.519,3.236-2.081c0.223-0.111,0-3.093,0-3.467
		c0-1.39,0.462-1.76,0.462-3.005c0-1.415-0.042-2.27,0.693-3.005c1.001-1.001,2.266-1.387,3.699-1.387
		c1.303,0,2.291,0.462,3.698,0.462c0.792,0,1.291,1.427,1.618,2.081c0.273,0.547,2.485,0.462,3.236,0.462c1.155,0,2.311,0,3.467,0
		c1.253,0,1.557,0.693,2.773,0.693c1.668,0,2.127-0.485,3.468-1.156c0.882-0.441,1.704-1.856,2.312-2.312
		c0.138-0.104,0.308-0.154,0.462-0.231c0.919-0.459,1.846-1.383,2.543-2.08c1.235-1.235,1.407-1.146,2.773-0.462
		c1.454,0.727,1.677,1.156,3.468,1.156c0.95,0,1.861-0.693,3.236-0.693c1.143,0,0.693,1.747,0.693,2.774
		c0,1.499,2.599-0.287,2.773-0.462c1.245-1.245,0.837-1.885,2.543-2.312c1.28-0.32,2.269-0.209,3.236-0.693
		c1.203-0.602,2.228,0.11,3.005,0.693c0.507,0.38,0.808,2.31,1.155,3.005c0.356,0.712,1.85,1.33,2.543,1.849
		c1.104,0.828,1.256,1.356,1.849,2.543c0.614,1.228,1.573,1.275,2.081,2.542c0.432,1.08,0.693,2.69,0.693,3.93
		c0,1.108,0.197,2.409,0.462,3.467c0.288,1.152,1.229,1.639,2.08,2.773c0.765,1.019,1.685,1.52,2.312,2.774
		c0.477,0.952,3.326,2.565,4.161,2.774c1.489,0.372,1.816,1.089,2.312,2.08c0.499,0.999,0.693,2.016,0.693,3.236
		c0,1.75-0.233,1.619-1.618,2.312c-0.804,0.402-2.598,0.462-3.698,0.462c-1.628,0-1.736,0.58-2.773,1.618
		c-0.937,0.937-1.156,0.689-1.156,2.543c0,1.02,0.992,1.455,1.618,2.08c0.25,0.25,0.561,2.971,0.693,3.236
		c0.705,1.409,2.312-0.234,2.312,1.849c0,1.507,0.064,2.048-0.925,2.543c-1.046,0.523-0.641,2.061-0.462,2.773
		c0.304,1.215,2.138-0.233,2.543,1.387c0.252,1.008,0,2.422,0,3.467c0,1.159-0.694,1.816-0.694,3.005
		c0,0.798,2.218,0.462,3.006,0.462c1.23,0,1.425-0.039,2.08-0.693 M453.729,95.128c0.67,0,2.791,0,4.16,0
		c1.2,0,1.447-0.97,2.312-1.618c0.877-0.658,2.093,0.697,3.005,0.925c0.979,0.244,2.528,0.054,3.236,0.231
		c0.795,0.199,0.886,1.483,1.618,1.849c1.011,0.506,2.575,0.231,3.698,0.231c1.156,0,2.312,0,3.468,0
		c1.207,0,1.845-0.686,2.312-1.618c0.345-0.691,4.088-0.191,4.854,0c1.612,0.403,1.85-0.019,1.85,1.849c0,1.156,0,2.312,0,3.467
		c0,1.032,0.67,1.987,0.925,3.005c0.131,0.525,2.955,0.231,3.467,0.231c1.038,0,2.388-1.425,3.236-1.849
		c0.196-0.098,0.231,2.928,0.231,3.236c0,1.421-0.817,1.883-1.156,3.236c-0.343,1.373,0.198,2.729,0.925,3.698
		c0.987,1.317,1.618-0.394,1.618,2.081c0,1.409,1.355,1.725,1.618,2.773c0.386,1.544,0.467,2.321,1.155,3.699
		c0.491,0.983-0.256,2.593-0.462,3.005c-0.454,0.908-1.32,1.352-1.618,2.542c-0.236,0.944,1.25,2.5,1.618,3.236
		c0.449,0.898,0.076,2.463,0.462,3.236c0.578,1.156,1.86,1.794,3.005,2.081c0.967,0.242,1.403-0.917,2.774-0.231
		c1.068,0.534,1.606,1.573,1.849,2.543c0.292,1.167,0.168,2.521,0.463,3.698c0.313,1.255,2.856-0.356,3.698-0.693
		c1.073-0.429,1.288-2.488,1.849-3.236c0.524-0.698,2.213-1.387,3.236-1.387c1.156,0,2.312,0,3.468,0
		c1.506,0,1.921-0.653,3.005-0.925c1.871-0.468,2.309,0.749,3.467,1.618c1.413,1.06,1.85,1.809,1.85,3.467
		c0,1.114,1.888,1.387,2.773,1.387c1.071,0,2.889-0.491,3.698-0.694c1.479-0.37,2.665,0.986,3.93,1.618
		c1.177,0.588,1.744,1.709,2.543,2.774c0.637,0.849,2.543-0.148,2.543-0.925c0-1.354,1.543-1.735,2.312-2.312
		c0.785-0.589,1.937-1.244,2.542-1.849c0.999-0.999,1.768-1.346,2.774-1.849c1.5-0.75,2.404-1.156,4.16-1.156
		c1.48,0,2.251-0.216,3.236-0.462c0.907-0.227,2.349-1.655,2.773-2.08c0.7-0.7,1.291-1.291,1.85-1.85
		c0.746-0.746,1.502-0.896,2.543-1.155c1.008-0.252,2.422,0,3.467,0 M564.913,130.957c1.314,0,2.175,0.611,2.542,2.08
		c0.326,1.304,1.101,1.573,1.388,3.005c0.297,1.485,0.809,1.012,2.312,1.387c1.498,0.375,1.824-1.022,2.312,0.924
		c0.252,1.008,0,2.422,0,3.467c0,1.414,0.003,2.316,0.693,3.236c0.701,0.935,0.784,1.156,2.542,1.156
		c1.386,0,2.155,0.381,2.774,1.618c0.429,0.858,2.643,1.899,3.467,2.312c0.892,0.445,2.152,1.138,2.774,1.387
		c0.842,0.337,1.195,1.779,1.387,2.542c0.293,1.174,1.536,2.155,2.312,2.542c0.776,0.389,2.759-0.111,3.235-0.231
		c0.779-0.195,0.694-2.563,0.694-3.236c0-1.36,0.462-2.139,0.462-3.467c0-2.109,0.783-1.914,2.773-2.312
		c1.123-0.225,1.975-0.598,3.468,0c1.62,0.648,1.434,1.063,0.925,2.08c-0.609,1.217-0.437,2.081,0.924,2.081
		c1.233,0,2.466,0,3.699,0c1.155,0,2.312,0,3.467,0c1.664,0,2.622-0.203,3.468,0.925c0.865,1.154,1.653,1.058,2.773,1.618
		c1.277,0.639,1.919,0.602,2.543,1.849c0.364,0.73,2.972,0.693,3.698,0.693c0.03,0,1.453,0.925,2.543,0.925
		c1.516,0,2.061,0.02,2.773-0.693c0.924-0.924-0.242-1.844,1.155-2.542c1.565-0.783,2.973,0.167,3.468,1.156
		c0.621,1.241,0.169,2.46,0.925,3.467c0.934,1.246,2.037,1.85,3.698,1.85c1.71,0,2.111-0.032,3.005-0.925
		c0.454-0.454,3.263,0.122,3.698,0.231c1.303,0.325,2.543-0.362,2.543,1.387c0,1.429,0.049,2.409,0.462,3.236
		c0.561,1.122,2.227,1.597,3.236,1.849c1.104,0.276,2.419-0.031,3.467,0.231c1.458,0.365,0.896,1.863,2.774,0.925
		c1.13-0.565,2.268-1.213,2.542-2.312c0.132-0.527,2.196-1.012,2.774-1.156c1.008-0.252,2.422,0,3.467,0c0.154,0,0.309,0,0.463,0
		 M665.694,164.474c0.049,0-1.743,2.437-2.08,2.774c-0.836,0.835-1.387,1.362-1.387,2.774c0,1.206-0.039,2.387,0.23,3.467
		c0.082,0.326,2.771,1.501,3.005,1.618c0.941,0.47,1.206,3.023,1.388,3.93c0.228,1.139,0.23,2.261,0.23,3.467
		c0,1.156,0,2.312,0,3.467c0,1.232-1.673,2.295-2.312,2.774c-0.832,0.624-1.59,1.658-2.08,2.312
		c-0.687,0.916-1.188,2.123-1.849,3.005c-0.368,0.49-2.649,0.315-3.236,0.462c-0.649,0.162-1.435,1.989-1.85,2.542
		c-0.348,0.464-1.813,0.724-2.312,1.387c-0.928,1.238-1.298,1.707-0.23,2.774c0.848,0.848,0.234,1.618,2.311,1.618
		c1.259,0,2.408,0.231,3.699,0.231c0.45,0,1.786,0.925,3.005,0.925c1.232,0,2.466,0,3.698,0c1.167,0,0.855-1.115,2.543-0.693
		c1.075,0.269,0.693,2.085,0.693,3.005c0,0.638-2.382,0.693-3.005,0.693c-1.359,0-1.828,0.651-2.312,1.618
		c-0.012,0.023-4.572,0.442-4.623,0.462c-0.961,0.384-1.362,1.38-2.312,1.618c-0.937,0.234-0.925,2.254-0.925,3.236
		c0,1.416-0.463,1.872-0.463,3.236c0,1.156,0,2.311,0,3.467c0,1.467,1.484,0.924,2.774,0.924c0.622,0,1.848-0.693,3.005-0.693
		c0.981,0,0.925,2.269,0.925,3.005c0,1.294,0.568,1.759,1.155,2.542c0.702,0.936-0.17,2.142,0.693,3.005
		c1.002,1.001,1.387,0.135,1.387,2.312c0,1.855-0.307,1.462-1.387,2.542c-0.888,0.888-1.043,1.473,0.463,1.849
		c1.225,0.306,2.652,0.231,3.93,0.231c1.586,0,0.739,1.987,0.462,2.543c-0.199,0.399-1.675,1.539-2.08,2.08
		c-0.782,1.563-1.116,2.693-1.85,4.161c-0.364,0.729,0,2.631,0,3.467c0,1.483-0.168,1.85-1.618,1.85
		c-0.946,0,0.895,2.874,1.156,3.005c0.755,0.377,0.462,1.936,0.462,3.005c0,1.155,0,2.312,0,3.468c0,0.637-1.645,1.74-2.08,1.849
		c-0.992,0.248-2.111,0.231-3.236,0.231c-1.335,0-2.396,0.23-3.698,0.23c-1.376,0-1.94,1.016-2.773,1.85
		c-0.835,0.835-1.501,0.117-2.081-0.463c-0.642-0.641-1.801-0.97-2.542-1.155c-1.129-0.282-2.591,0.024-3.468,0.462
		c-1.147,0.574-1.233,0.926-2.773,0.926c-1.347,0-2.229-0.074-3.005-0.463c-1.412-0.706-1.561-1.314-3.006-0.231
		c-0.908,0.683-2.064,0.462-3.235,0.462c-1.353,0-2.173,0.047-3.005,0.463c-0.831,0.416-0.693,1.727-0.693,2.773
		c0,1.24-0.011,2.814-0.231,3.699c-0.298,1.189-1.156,1.935-1.156,3.467c0,1.296-1.05,1.156-2.312,1.156
		c-1.665,0-1.899,0.05-2.773,0.924c-1.081,1.082-0.46,2.195-1.85,2.543c-0.991,0.248-2.11,0.231-3.235,0.231
		c-1.599,0-1.919,0.382-3.005,0.925c-0.98,0.49-1.181,1.436-1.618,2.311c-0.45,0.899-0.254,2.633-0.463,3.468
		c-0.224,0.896-0.462,2.037-0.462,3.236c0,1.232,0,2.466,0,3.698c0,1.104-0.043,2.481-0.231,3.236
		c-0.295,1.18,0.227,0.924,1.85,0.924c0.799,0,0.462,2.219,0.462,3.006c0,1.236-1.072,1.96-1.849,2.543
		c-1.296,0.971-1.156,2.066-1.156,3.697c0,1.543,0,1.865,0,3.236c0,1.142-1.1,1.85-2.312,1.85c-1.686,0-2.046-0.416-2.773-1.387
		c-0.828-1.104-2.887,0.045-3.93,0.462c-1.256,0.503-3.75,0-5.086,0c-1.712,0-1.982,0.134-2.773,0.925
		c-1.391,1.391-2.082,1.156-4.854,1.156c-1.843,0-1.962,0.921-3.005,2.311c-0.351,0.469-1.768,0.922-2.08,1.156 M585.717,314.028
		c-0.536,0.714-0.694,1.962-0.694,3.468c0,0.918-2.047,2.401-2.542,2.773c-1.143,0.857-0.758,1.691-2.312,2.08
		c-1.595,0.398-2.562-0.805-3.93-0.463c-0.683,0.172-2.154,2.256-2.543,2.774c-0.855,1.141-1.607,1.849-3.005,1.849
		c-0.58,0-2.546,0.579-3.005,0.693c-0.924,0.231-1.876,1.645-2.312,2.081c-1.034,1.034-1.128,1.821-2.08,2.774
		c-1.566,1.564,0.661,1.494-2.543,0.693c-1.575-0.395-2.207-0.842-3.467-1.156c-0.57-0.143-2.954,1.007-3.699,1.156
		c-1.179,0.235-2.17,0.991-3.005,1.617c-1.31,0.982-1.675,2.312-2.542,3.468c-0.856,1.142-1.734,2.196-2.543,3.005
		c-0.578,0.578-2.196,0.115-2.773,0.693c-0.606,0.605-3.139-0.298-3.468-0.463c-1.038-0.519-1.66-1.107-2.773-1.387
		c-1.232-0.308-3.213-0.063-4.392,0.231c-1.344,0.336-1.339,1.155-3.006,1.155c-1.095,0-2.216,1.523-2.773,2.081
		c-1.245,1.245-2.026,1.563-3.236,2.774c-1.117,1.116-1.305,1.766-2.312,2.773c-1.072,1.072-2.134,1.209-3.235,2.311
		c-0.827,0.828-1.578,0.871-2.312,1.85c-0.897,1.195-2.333,1.893-3.006,3.236c-0.216,0.433-1.499,1.962-1.849,2.312
		c-1.05,1.05-1.144,1.394-2.543,0.693c-1.213-0.606-1.583-1.317-2.08-2.312c-0.349-0.695-1.285-1.328-1.85-2.08
		c-0.722-0.963-1.394-1.401-1.849-2.312c-0.633-1.265,1.296-0.825,1.618,0.462c0.309,1.234,0.075,2.23,0.462,3.006
		c0.535,1.069-0.079-2.622-0.925-3.468c-0.184-0.185,0.832,2.034,1.85,2.542c0.503,0.252-0.909-2.295-0.925-2.311
		c-0.272-0.273-0.616-0.463-0.925-0.693c-1.021-0.766,1.618,2.191,1.618,3.467c0,1.326-0.1,2.281-0.462,3.005
		c-0.529,1.058-1.279,1.633-1.85,2.774c-0.692,1.384-1.141,1.371-2.312,2.542c-0.745,0.745-1.479,0.693-2.773,0.693
		c-1.156,0-2.312,0-3.468,0c-1.192,0-1.024,0.431-1.387,1.155 M494.412,364.881c-0.78,0-2.001,2.041-3.005,2.543
		c-0.517,0.258-1.512,1.975-2.312,2.773c-0.771,0.771,0.11,2.306,0.462,2.774c0.874,1.165,2.312-0.747,2.312,1.155
		c0,1.156,0,2.313,0,3.468s0,2.312,0,3.468c0,1.155,0,2.311,0,3.467c0,1.477-0.274,1.893-1.156,2.773
		c-0.71,0.711-1.155,1.205-1.155,2.543c0,0.861,4.718-0.972,5.085-1.156c1.263-0.631,1.388-1.353,1.388-2.773
		c0-1.245-1.564-2.053-2.543-2.543c-1.117-0.559-2.22-2.189-3.005-3.236c-0.751-1.001-1.194-1.464-1.618-2.311
		c-0.352-0.703-1.389-1.158-1.85-1.618c-0.763-0.764-1.316-0.854-2.08-1.618c-0.27-0.27,2.824-2.105,3.236-2.312
		c1.355-0.678-0.646-2.495-0.693-2.543c-0.761-0.761-1.435-0.925-2.774-0.925c-1.142,0-2.333,0.357-3.005,0.693
		c-1.165,0.583-0.671,2.104,0,2.774c1.171,1.171,2.312,0.276,2.312,2.08c0,1.178-0.431,2.28-0.925,2.774
		c-0.755,0.754-1.779,2.01-2.312,2.542c-0.749,0.749-1.567,0.644-2.311,1.388c-0.767,0.766-1.457-2.682-1.618-3.006
		c-0.737-1.475-0.925-1.711-0.925-3.467c0-0.705,2.114-2.115,2.312-2.312c1.069-1.069,1.849,0.32,1.849-1.849
		c0-0.78-2.378-0.463-3.005-0.463c-1.155,0-2.312,0-3.467,0c-0.83,0-1.507-0.724-2.312-0.925c-0.322-0.081,1.433,3.028-0.925,1.849
		c-1.636-0.816-2.343-1.448-3.005-2.773c-0.572-1.145-0.512-2.492-1.85-1.155c-0.859,0.859-1.182,1.207-1.617,2.08
		c-0.436,0.87-0.229,2.302-0.463,3.236c-0.267,1.067-1.932,0.614-2.543,0.462c-1.169-0.292-1.768-1.768-2.542-2.543
		c-0.778-0.777-0.831-1.305-2.081-1.617c-1.333-0.334-2.281,0.794-3.005,1.155c-1.445,0.724-1.029-2.521-3.467-0.693
		c-1.204,0.903-2.021,0.917-2.312,2.081c-0.474,1.893,1.3,1.849,2.543,1.849c1.426,0,2.664-0.204,3.005,1.155
		c0.417,1.668-0.362,2.412,0.693,3.468c0.736,0.736,3.339,0.693,4.392,0.693c1.535,0,2.146-0.595,3.467-0.925
		c1.456-0.363,1.74,1.318,2.313,2.08c0.955,1.275-0.738,2.174,0.924,3.006c1.346,0.672,4.676,0,6.241,0
		c1.684,0,2.6-0.043,3.468-0.693c1.255-0.942,2.08,0.539,2.08,1.387c0,1.432-0.807,1.357-1.85,1.617
		c-0.952,0.238,0.687,1.391,2.081,0.693c1.31-0.654,2.143-1.387,3.698-1.387c0.928,0,0.184,1.944-0.231,2.774
		c-0.041,0.083,2.644-0.2,3.236-1.388c0.623-1.246,0.909-2.988-1.156-0.924c-1.489,1.489-1.938,3.646-2.773,5.316
		c-1.378,2.755,1.33,1.299,2.543,0.693c1.201-0.601,2.505-1.531,3.235-2.08c1.137-0.853,2.528,0.217,3.006,0.693
		c0.351,0.352,0,3.109,0,3.698c0,1.8,0.859,1.849,2.542,1.849c1.42,0,2.449,0.15,3.698,0.463c1.448,0.361,2.142,1.679,3.005,2.543
		c0.748,0.747,0.566,2.604,1.388,3.698c1.022,1.363,1.8,2.493,2.773,3.468c0.612,0.612,0.925,2.217,0.925,3.235
		c0,1.233,0,2.466,0,3.698c0,1.644,0.085,1.971,1.155,2.773c1.317,0.988,3.394,1.156,5.086,1.156c1.368,0,2.897,0.378,4.16,0.693
		c1.183,0.296,2.173,0.463,3.468,0.463c1.534,0,3.463,0.059,4.623-0.231c1.609-0.402,1.913-1.285,2.542-2.542
		c0.65-1.301,1.962-2.313,3.699-2.313c0.756,0,2.157-1.233,2.312-1.849c0.396-1.585,0.144-3.236,1.849-3.236
		c1.696,0,1.988,1.482,2.312,2.774c0.45,1.799,1.127,1.617,3.005,1.617c1.372,0,2.44,0.412,2.774-0.924
		c0.4-1.605-0.584-2.513,1.387-3.006c1.3-0.324,3.773-1,4.623-1.849c0.851-0.852,2.313-1.156,3.467-1.388
		c1.584-0.316,2.892,0.463,4.392,0.463c1.75,0,3.032,0.375,4.623,0.693c1.113,0.223,1.826,0.463,3.236,0.463
		c1.274,0,2.543,0.832,2.543,2.08c0,1.705,0.865,2.543-1.156,2.543c-1.336,0-2.708,0.462-4.16,0.462c-1.188,0-1.635,1.65-2.08,2.542
		c-0.563,1.125-0.694,1.52-0.694,3.006c0,1.155,0,2.311,0,3.467s0,2.312,0,3.468c0,1.41,0.276,2.729-0.693,3.698
		c-1.068,1.068-3.36,1.618-4.854,1.618c-1.741,0-2.452,0.924-3.93,0.924c-1.971,0-4.178,0.231-6.241,0.231c-1.156,0-2.312,0-3.467,0
		c-1.246,0-1.163,0.925-2.543,0.925c-1.812,0-2.472-0.063-3.93-1.156c-0.866-0.649-1.204-1.252-1.618-2.08
		c-0.319-0.638-3.58-1.155-4.161-1.155c-1.395,0-2.46-0.075-3.235-0.463c-1.166-0.583-1.806,1.344-2.312,1.85
		c-0.72,0.72-1.241,1.703-2.081,2.542c-0.126,0.126-1.074,0.385-1.387,0.463 M516.603,429.142c-0.578,0.578-1.618,2.213-1.618,3.93
		c0,1.609,0.323,2.08-1.387,2.08c-1.28,0-1.456,0.763-2.081,1.387c-0.885,0.885-1.589,1.335-3.005,1.618
		c-0.628,0.126-1.662,2.169-1.849,2.543c-0.558,1.114-0.693,1.733-0.693,3.235c0,1.755-0.147,1.618-1.85,1.618
		c-1.378,0-1.717-1.022-2.312-1.618c-0.915-0.914-1.811-0.693-3.236-0.693c-1.567,0-2.879,0.925-4.623,0.925
		c-1.639,0-2.903,0.09-4.392,0.462c-1.543,0.387-2.369,1.85-3.236,3.006c-0.729,0.973-1.895,1.641-2.773,2.08
		c-1.123,0.562-1.795,0.87-2.543,1.618c-1.045,1.045-1.637,1.888-2.312,3.236c-0.574,1.147-0.632,2.529-0.925,3.698
		c-0.31,1.238-0.711,1.653-1.155,2.542c-0.342,0.684-1.785,1.224-2.312,1.618c-1.042,0.781-2.682,1.351-3.93,1.85
		c-1.294,0.518-1.769,1.973-2.543,3.005c-0.688,0.918-1.399,0.693-2.773,0.693c-1.208,0-2.375-0.042-3.468,0.231
		c-1.269,0.317-2.701-0.076-3.929,0.23c-1.115,0.279-2.815,0.231-3.93,0.231c-1.896,0-2.977-0.347-3.93-1.618
		c-0.825-1.101-0.905-1.599-1.618-2.312c-0.511-0.511-2.687-0.23-3.467-0.23c-1.05,0-2.01-1.085-2.543-1.618
		c-0.947-0.948-1.246-1.798-1.85-3.005c-0.445-0.892-0.558-1.659,0-2.774c0.375-0.749,1.59-1.206,2.312-1.387
		c1.561-0.39,2.179,0.666,2.543-1.155c0.226-1.128,0-2.551,0-3.699c0-1.663,0.035-3.521-0.231-4.854
		c-0.31-1.551,0.605-1.762,1.387-2.543c0.753-0.752,0.436-2.435,0.693-3.467c0.329-1.314,0.231-2.77,0.231-4.161
		c0-1.533-0.071-2.455-0.693-3.698c-0.359-0.719-1.379-1.148-1.849-1.618c-0.888-0.888-1.735-1.504-2.312-2.08
		c-0.958-0.957-1.434-1.434-2.081-2.081c-0.673-0.673-1.958-1.155-3.005-1.155c-1.592,0-2.486,0.016-3.698,0.925
		c-0.768,0.575-2.651,0.204-3.467,0c-0.98-0.245-1.85-1.85-2.543-2.543c-0.872-0.872-1.79-1.559-2.543-2.312
		c-0.754-0.755-1.264-1.526-2.312-2.312c-1.017-0.763-1.235-1.311-2.312-1.85c-1.095-0.547-2.093-0.693-3.236-0.693
		c-1.25,0-2.498,0.693-3.929,0.693c-1.358,0-2.53,0.463-3.93,0.463c-1.407,0-1.913,1.449-2.774,2.312
		c-0.638,0.638-2.023-3.01-2.08-3.236c-0.251-1.005-0.693-1.472-0.693-3.005c0-1.115,0.876-2.555,1.387-3.236
		c0.912-1.217,1.638-1.449,3.236-1.85c1.696-0.424,2.34-0.26,3.467-1.387c0.96-0.959,1.757-1.525,2.543-2.311
		c1.001-1.002,2.115-1.23,3.467-2.313c1.2-0.959,2.811-1.539,4.161-2.08c1.604-0.642,2.928-1.426,4.623-1.85
		c1.305-0.326,3.404-1.324,4.392-2.311c0.977-0.977,2.271-1.81,3.005-2.543c0.715-0.715,2.56-0.479,3.468-1.387
		c0.725-0.725,1.645-1.183,2.312-1.85c1.048-1.048,2.495-0.924,3.93-0.924c2.031,0,2.885,0.236,3.93-1.156
		c0.767-1.022,1.155-1.504,1.155-3.006c0-0.996-2.167-1.449-3.005-1.617c-1.541-0.309,0.925-3.052,0.925-4.623
		c0-1.359-1.141-1.834-1.85-2.543c-0.668-0.668-0.462-1.914-0.462-3.005c0-1.224-2.009-0.766-2.543-0.231
		c-0.957,0.957-1.126,2.395-1.387,3.699c-0.365,1.826-0.071,2.063-1.85,1.617c-1.655-0.414-2.979-1.836-3.929-2.311
		c-0.923-0.462-1.893-1.524-3.006-2.081c-0.831-0.415-1.165-0.965-1.387-1.849c-1.23-0.615,0.737-2.564-1.618-1.387
		c-0.505,0.252-1.233,2.389-1.849,3.004c-0.846,0.846-1.553,0.693-3.005,0.693c-0.99,0-1.078-0.924-1.85-0.924
		c-0.833,0-1.247,1.387-2.08,1.387c-1.233,0-2.466,0-3.698,0c-1.156,0-2.312,0-3.468,0c-1.106,0-2.351,0.954-3.236,1.618
		c-1.24,0.931-1.902,1.458-3.467,1.849c-1.024,0.256-2.565-0.006-3.468-0.23c-1.416-0.354-3.26,0.041-4.623-0.231
		c-1.505-0.301-2.194-1.27-3.235-2.312c-0.827-0.826-2.61-1.379-3.236-1.85c-0.89-0.667-1.2-0.969-1.85-1.617
		c-0.823-0.824-2.486-1.1-3.235-1.85c-0.911-0.91-2.439-1.45-3.236-1.85c-1.153-0.576-2.298-1.033-3.468-1.617
		c-1.006-0.504-1.492-1.493-2.08-2.081c-1.073-1.072-2.18,1.354-2.312,1.618c-0.78,1.561,1.451,1.156,2.312,1.156
		c0.508,0,2.023-2.255,2.312-2.543c1.087-1.088,2.32-0.96,2.773-2.773c0.316-1.263,0.82-1.43,1.156-2.774
		c0.199-0.796-2.436-1.564-3.005-1.849c-0.955-0.479-2.544-0.116-3.236-0.463c-1.136-0.567-1.426-1.387-3.005-1.387
		c-0.851,0-2.099,2.33-2.543,2.773c-0.754,0.755-1.652-0.256-2.542-0.924c-1.126-0.845-1.671-1.439-2.312-2.08
		c-0.891-0.891-1.33-1.445-0.463-2.313c0.827-0.826,3.998-0.23,5.086-0.23c1.507,0,2.931,0.23,4.392,0.23
		c1.507,0,4.045,1.117,5.548,1.618c1.247,0.416,3.31,0,4.623,0c1.555,0,3.105-0.181,4.392,0.462c1.132,0.566,2.601,0.693,3.93,0.693
		c1.593,0,2.032,0.049,2.773-0.693c0.868-0.867,0.217-2.065,1.156-3.004c0.972-0.973,2.865-1.591,4.16-1.85
		c1.503-0.301,1.266-1.156-0.462-1.156c-0.905,0-2.655,1.703-3.468,2.313c-0.827,0.62-2.048,0.693-3.236,0.693
		c-1.393,0-1.23-1.619-2.773-1.619c-1.509,0-2.408,0.305-3.236,0.926c-1.296,0.971-2.356-1.337-2.542-2.081
		c-0.381-1.521-1.608-1.155-3.236-1.155c-1.13,0-1.669-1.455-2.312-2.313c-0.724-0.965-1.19-1.686-1.618-2.542
		c-0.481-0.964-0.744-1.669-1.387-2.312c-0.952-0.951,0.925,2.584,0.925,3.93c0,1.377-0.085,2.48-0.463,3.236
		c-0.723,1.445-1.826,1.155-3.236,1.155c-1.104,0-2.481-0.042-3.235-0.231c-1.154-0.288-1.368-0.693-2.774-0.693
		c-1.058,0-1.409,0.925-2.773,0.925c-0.681,0-1.798-1.335-2.08-1.618c-0.893-0.892-0.851-1.016-1.156-2.543
		c-0.264-1.32,2.019-2.48,2.773-3.235c0.95-0.95,2.658-2.312,0.694-2.312c-0.476,0-1.779,2.911-1.85,3.005
		c-0.717,0.956-0.674,1.638-1.85,0.462c-1.049-1.049-1.017-2.403,1.85,0.463c1.275,1.275,0.082,2.502-0.925,3.005
		c-1.126,0.563-1.415,1.104-2.542,1.387 M306.023,341.535c0-0.832-1.248-2.867-1.849-3.467c-0.854-0.854-2.391-1.118-3.468-1.387
		c-0.877-0.22-1.96-1.473-3.467-1.85c-0.308-0.077-0.616-0.154-0.925-0.231c-1.253-0.313-1.967-1.161-2.542-2.312
		c-0.49-0.979-0.966-1.238-1.387-2.08c-0.514-1.027-0.231-2.312,0.231-3.236c0.674-1.348,0.955-1.819,0-2.773
		c-0.771-0.771-1.682-0.758-2.312-1.387c-1.049-1.05-2.138-1.705-0.462-2.543c1.182-0.591,1.156-1.402,1.156-2.773
		c0-1.572,0.17-1.958,0.693-3.006c0.716-1.432,0.925-1.713,0.925-3.467c0-0.808-1.616-1.271-2.312-1.618
		c-1.338-0.669-1.859,1.194-2.081,2.08c-0.435,1.742-0.152,1.339-1.156,0c-0.551-0.734-1.353-1.583-2.08-2.312
		c-0.938-0.938-1.413-1.868-2.312-2.543c-1.121-0.84-1.723-1.723-2.312-2.311c-0.79-0.791-1.69-0.996-2.543-1.85
		c-0.977-0.977-1.724-0.887-2.08-2.312c-0.244-0.975,0.076-2.616,0.231-3.236c0.257-1.026,0.262-2.433,0.462-3.235
		c0.348-1.393,0.483-1.893,0.925-2.774c0.292-0.585,1.094-0.802,1.387-1.387c0.496-0.991,0.693-1.245,0.693-2.774
		c0-1.396-0.227-2.062-0.462-3.004c-0.184-0.736,0.924-1.322,0.924-2.081c0-0.382-1.156-1.706-1.156-3.005
		c0-1.638-0.126-1.766-1.387-2.08c-1.249-0.313-0.834-1.086-2.081-0.463c-1.282,0.642,0.752,1.85-1.618,1.85
		c-1.363,0-1.794-0.639-2.542-1.387c-0.821-0.821-1.446-1.929-2.081-2.773c-0.791-1.055-0.718-1.875-1.618-2.774
		c-0.834-0.834-1.41-1.896-1.85-2.774c-0.448-0.896-1.576-1.113-2.08-1.617c-0.57-0.57-1.938-1.085-2.542-1.387
		c-1.125-0.563-1.52-0.693-3.005-0.693c-1.326,0-2.28,0.1-3.005,0.462c-0.637,0.318-1.026,2.978-1.156,3.235
		c-0.585,1.172-2.441-0.748-2.542-1.155c-0.414-1.655,0.398-2.511-1.387-1.618c-1.448,0.725-1.547,0.43-1.85-1.387
		c-0.063-0.375,1.618-1.33,1.618-2.543c0-1.178-1.873-1.682-2.542-1.849c-1.31-0.327-2.114,0.958-2.543,1.387
		c-1.265,1.266-0.576,0.579-1.849-0.693c-0.879-0.88-1.083-1.155-2.542-1.155c-0.683,0-1.24-2.018-1.387-2.313
		c-0.304-0.607-1.611-1.152-2.08-1.387c-1.074-0.537-1.838-1.266-2.542-1.617c-1.055-0.527-1.854-1.392-2.543-2.081
		c-0.904-0.904-1.512-1.974-2.08-2.542c-0.584-0.585-2.337-0.476-3.236-0.926c-0.871-0.435-2.202-0.23-3.236-0.23
		c-0.897,0-2.182-0.231-3.236-0.231c-0.308,0-0.616,0-0.925,0c-0.602,0-0.572-1.241-1.156-1.387
		c-1.456-0.364-2.208,1.052-3.005,1.849c-0.919,0.92-2.814-0.543-3.005-0.924c-0.239-0.479-1.387,3.14-1.387,3.698
		c0,1.629-0.89,1.387-2.312,1.387c-1.507,0-2.263,0.049-3.236-0.925c-0.979-0.979-0.491-1.617-2.312-1.617
		c-2.279,0-2.08,0.461-2.542,2.311c-0.346,1.385-2.563-0.588-3.236-0.924c-1.254-0.627-0.706-1.387-2.542-1.387
		c-1.72,0-1.479,0.369-1.849,1.849c-0.252,1.008,0,2.423,0,3.468c0,1.404-0.727,1.42-1.618,2.311
		c-1.237,1.237-1.383,1.387-3.236,1.387c-0.835,0-1.673-0.648-2.773-0.924c-1.402-0.351-2.612,0.497-3.467,0.924
		c-1.075,0.538-1.973-0.053-3.005,0.463c-1.198,0.6-1.894,0.82-3.236,1.156c-1.261,0.314-1.643,1.205-2.081,2.08
		c-0.419,0.838-0.231,2.471-0.231,3.467c0,1.604-0.048,2.08-1.618,2.08c-0.908,0-1.192,1.619-2.774,1.619
		c-1.569,0-2.902,0.462-4.392,0.462c-1.541,0-3.082,0-4.623,0c-1.522,0-2.805,0.585-4.161,0.925
		c-1.453,0.363-1.909,1.155-3.699,1.155c-1.155,0-2.312,0-3.467,0c-1.156,0-2.312,0-3.467,0s-2.312,0-3.467,0s-2.312,0-3.467,0
		c-1.492,0-2.09,1.395-3.005,2.081c-0.901,0.676-1.521,1.545-2.542,2.311c-0.667,0.5-0.832,1.758-1.387,2.313
		c-0.978,0.977-1.321,1.799-2.312,2.542c-0.797,0.598-2.939,0.231-3.93,0.231c-1.631,0-3.181,0.027-4.161-0.463
		c-0.873-0.436-0.693-2.604-0.693-3.467c0-0.858-1.778-2.24-2.081-2.543c-0.663-0.662-1.48-1.248-2.08-1.85
		c-1.013-1.012-1.395-2.32-2.081-3.235c-0.692-0.923-0.96-1.423-1.618-2.081c-0.83-0.829-1.823-1.136-2.774-1.849
		c-1.326-0.995-3.012,0.468-3.929,1.155c-0.847,0.635-2.419,0.952-3.236,1.156c-1.144,0.286-2.745,0-3.93,0
		c-1.245,0-2.545-0.001-3.467-0.23c-1.166-0.293-2.013-2.245-2.542-2.774c-0.345-0.346-2.918,0-3.467,0
		c-1.732,0-2.122-0.042-3.236-1.155c-0.75-0.751-1.598-1.492-2.312-1.85c-1.168-0.584-3.259-0.231-4.623-0.231
		c-1.298,0-2.358-0.231-3.699-0.231c-1.156,0-2.312,0-3.467,0c-1.694,0-1.701-1.007-2.542-1.849
		c-0.776-0.776-1.273-1.966-1.849-2.543c-0.8-0.8-2.048-1.123-2.774-1.849c-0.947-0.947-2.015-0.984-3.467-0.693
		c-1.603,0.32-2.675,2.149-3.005,3.467c-0.264,1.055-1.235,1.311-1.849,1.618 M54.532,259.708c-0.318,1.272-3.001-0.696-3.93,0.231
		c-1.668,1.668-1.387-0.424-1.387-2.081c0-1.345,0.231-1.97,0.231-3.235c0-0.518-2.738-1.947-3.005-2.081
		c-1.156-0.577-1.651-0.858-3.236-0.462c-1.578,0.395-1.412-1.644-2.543-2.773c-0.655-0.656-1.265-2.762-1.618-3.468
		c-0.228-0.455-2.082-1.156-2.543-1.388c-1.597-0.798-3.262-1.182-4.161-2.08c-1.154-1.154-1.462-3.075-1.849-4.623
		c-0.33-1.319-0.639-2.516-2.081-3.236c-1.486-0.743-1.618-1.195-1.618-2.773c0-1.375,1.849-2.284,1.849-3.93
		c0-1.104,0.572-2.422,1.156-3.005c0.798-0.798,1.294-1.225,2.542-1.849c1.223-0.612,2.001-1.922,2.542-3.005
		c0.683-1.365,1.035-2.75,1.387-4.161c0.321-1.286-0.029-2.471,0.462-3.698c0.623-1.559,1.005-1.93,2.312-3.236
		c0.853-0.853,2.062-1.369,3.005-2.312c0.883-0.883,0.887-1.699,1.156-2.773c0.375-1.503-0.419-2.102,0.924-2.774
		c1.534-0.767-0.963-2.264,2.543-1.387c2.06,0.515,3.527,1.618,5.547,1.618c1.344,0,2.535,0.454,3.236,1.156
		c0.599,0.599,0,2.434,0-0.231c0-1.409,0.12-2.383-0.693-3.467c-0.713-0.951-1.12-1.777-1.618-2.774
		c-0.437-0.873-0.462-1.724-0.462-3.005c0-1.156,0-2.312,0-3.467c0-1.26,0.231-2.268,0.231-3.467c0-1.233,0-2.466,0-3.698
		c0-1.156,0-2.312,0-3.467 M51.758,179.499c0-1.23,0-4.044,0-6.01c0-1.896,2.87-2.162,4.392-2.542
		c1.129-0.282,1.735-2.044,2.312-3.005c0.866-1.443,0.358-2.176,2.081-3.467c1.409-1.057,2.799-1.875,3.929-3.005
		c1.483-1.483,2.949-2.199,3.93-4.161c0.915-1.83,2.589-3.328,3.467-5.085c0.692-1.384,1.898-2.175,3.005-3.005
		c1.206-0.905,2.226-1.937,3.236-2.543c1.252-0.751,1.986-1.292,3.005-2.312c1.2-1.2,3.483-1.403,4.623-2.542
		c0.885-0.885,1.681-1.625,2.542-2.774c0.975-1.3,2.194-1.992,3.236-2.773c0.97-0.728,1.479-1.318,2.542-1.85
		c1.433-0.716,1.109-1.155,3.236-1.155c1.271,0,2.563,0.052,3.698-0.231c0.704-0.176,1.378-1.6,1.618-2.08
		c0.516-1.032,1.355-1.818,1.849-2.312c0.724-0.724,1.442-1.46,2.081-2.312c0.732-0.976,0.924-1.541,0.924-3.005
		c0-1.571,0.462-2.695,0.462-4.161c0-1.382-0.851-2.213-1.618-3.236c-0.687-0.916-1.163-1.633-1.618-2.543
		c-0.665-1.329-0.423-2.159,0-3.005c0.544-1.088,2.353-0.693,3.699-0.693c2.379,0,0.687-1.162-0.231-2.081
		c-0.922-0.922-1.446-1.044-2.08-2.312c-0.613-1.225-0.805-2.293-1.156-3.698c-0.439-1.755-1.409-3.554-1.849-5.316
		c-0.385-1.538-0.715-2.123-1.387-3.467c-0.438-0.877-1.26-1.757-1.849-2.542c-0.837-1.117-1.478-2.494-2.081-3.699
		c-0.503-1.006-1.808-2.23-2.312-3.236c-0.507-1.016-0.693-1.534-0.693-3.005c0-1.165,0.231-2.419,0.231-3.699
		c0-1.224-0.006-2.288,0.231-3.236c0.284-1.134-0.021-2.583-0.462-3.467c-0.477-0.954-0.671-1.066-0.924-2.081 M304.826,340.248
		c-0.313,0.477,0.375,2.498,0.375,3.943c0,1.251,0,2.503,0,3.754c0,1.064,0,2.129,0,3.192c0,1.464,0.751,2.487,0.751,3.942
		c0,1.113,0.481,1.676,1.502,2.441c1.034,0.775,2.395,1.572,3.38,2.064c0.896,0.449,1.127,1.568,1.127,2.441
		c0,1.563-1.81,0.938-3.192,0.938c-1.188,0-2.378,0-3.567,0c-1.101,0-1.896,0.39-2.628,0.938c-1.184,0.888-2.746-0.383-3.192-1.126
		c-0.582-0.972-0.523-1.987-0.938-2.816c-0.587-1.173-1.602-1.214-2.253-0.563c-0.72,0.721-1.145,2.409-1.502,3.004
		c-0.629,1.05-1.99-0.111-2.628-0.75c-0.909-0.91-0.634-2.213-1.689-3.005c-0.969-0.726-2.095-1.008-3.004-1.689
		c-0.486-0.364-3.79,2.562-4.13,2.816c-1.109,0.832-2.308,1.375-3.567,1.689c-1.45,0.362-2.004-2.571-2.253-3.567
		c-0.205-0.818,0-1.967,0-2.816c0-1.415-2.586,0.167-3.004,0.376c-0.995,0.497-2.37,0.868-3.004,1.502
		c-0.896,0.896-2.108,1.17-3.004,2.065c-0.675,0.675-0.379,2.237-0.188,3.004c0.276,1.102,0.751,1.766,0.751,3.004
		c0,1.127,0,2.253,0,3.379c0,1.115,0.634,2.098,1.314,3.005c0.75,1.001,0.751,1.267,0.751,2.816c0,1.78-0.76,2.271-1.502,3.755
		c-0.546,1.092-1.572,1.593-1.877,2.816c-0.309,1.235,0.311,1.631-0.188,2.629c-0.735,1.469-3.177,1.877-4.694,1.877
		c-0.837,0-1.547,1-2.065,1.689c-0.57,0.761-0.375,1.929-0.375,3.004c0,2.176-0.015,2.029-1.314,3.004
		c-1.276,0.957-2.065,0.689-3.004,2.254c-0.792,1.318-1.198,2.458-2.628,2.816c-1.605,0.4-1.83,0.561-2.816,1.877
		c-0.624,0.832-0.085,2.458,0.188,3.004c0.442,0.884,0.563,2.713,0.563,3.756c0,1.611-2.638,2.445-3.755,3.004
		c-1.255,0.627-3.628,0.627-4.882,0c-1.189-0.595-2.087,0.198-2.816,0.563c-0.934,0.468-0.564,2.812-0.375,3.568
		c0.271,1.084,1.564,2.314,2.253,3.004c0.752,0.752,2.945,1.941,3.943,2.44c0.624,0.312,1.829,2.438,2.253,3.004
		c0.707,0.943,2.807,1.274,3.942,1.502c1.261,0.252,2.366,1.014,3.567,1.314c1.004,0.251,1.87,0.375,3.004,0.375
		c1.688,0,1.502-0.13,1.502-1.689c0-1.145-0.083-2.299,0.188-3.38c0.341-1.365,1.483-0.938,2.816-0.938
		c1.239,0,1.523,2.108,1.877,2.816c0.462,0.925,2.043,0.668,3.004,0.188c1.273-0.636,2.356-1.156,3.567-2.065
		c1.35-1.012,3.369-1.533,4.882-2.44c0.839-0.503,2.222-1.071,3.192-1.314c1.521-0.38,2.41-0.938,4.318-0.938
		c1.385,0,2.678-0.131,3.943,0.375c1.153,0.462,1.656,1.148,2.629,1.878c0.888,0.667,1.619,1.781,1.877,2.816
		c0.221,0.886,0.188,1.837,0.188,2.816c0,1.137,0.12,2.17,0.375,3.191c0.264,1.056,1.938,0.939,3.004,0.939
		c0.432,0,0.904-2.636,1.126-3.192c0.362-0.906,1.467-1.843,2.253-2.628c0.87-0.87,0.646-2.489,0.375-3.567
		c-0.349-1.397-1.139-2.078-2.065-3.004c-0.774-0.775-2.144-1.608-3.004-2.254c-0.975-0.73-1.229-2.832-1.69-3.755
		c-0.379-0.759-0.55-1.938-0.751-2.44c-0.497-1.242,0.096-3.574,0.375-4.693c0.292-1.166,0.104-2.479,0.375-3.568
		c0.213-0.853,1.575-1.538,2.253-1.877c0.791-0.396,1.69,4.458,1.69,5.445c0,1.477-0.105,2.836,1.314,3.191
		c0.501,0.125,1.002,0.25,1.502,0.375c1.352,0.338,1.805-0.979,2.254-1.877c0.598-1.195-0.507-2.947-0.939-3.38
		c-1.143-1.144-1.255-1.657,0.376-2.065c1.182-0.295,1.763,0.303,2.628-0.563c0.718-0.718,0.528-2.113,0.751-3.005
		c0.223-0.89,1.282-1.094,1.878-1.689c0.608-0.608,2.19-0.923,3.004-1.126c0.915-0.229,1.968,0.982,2.629,1.313
		c0.807,0.403,1.351-1.502,2.253-1.502c0.975,0,2.118-0.013,2.816-0.188c0.661-0.165,1.515-1.716,1.689-2.065
		c0.576-1.152,0.961-1.545,1.502-2.629c0.538-1.074,0.797-2.063,1.502-3.004c0.453-0.604,0.93-1.276,1.127-2.064
		c0.22-0.879,0-2.098,0-3.005c0-1.297-0.491-2.108-0.938-3.004c-0.333-0.664-1.034-1.268-1.878-1.689
		c-0.687-0.344-1.189-1.19-1.689-1.69c-0.877-0.876-1.395-1.207-2.065-1.877c-0.767-0.766-1.187-1.52-1.878-2.441
		c-1.033-1.378-1.27-3.549-1.877-5.068c-0.546-1.363-0.776-0.914,0.188-1.878c0.792-0.792,0.94-1.126,2.065-1.126
		c1.232,0,1.759-0.119,2.44,0.563c0.414,0.414,0.975,1.574,1.127,1.877c0.412,0.826,1.589,0.727,1.877,1.879
		c0.295,1.178,0.375,2.189,1.127,3.191c0.514,0.686,1.232,0.897,2.065,1.314c0.275,0.137,0.697,2.791,0.751,3.004
		c0.216,0.863,1.531,0.979,2.064,1.689c0.729,0.973,0.525,1.127,2.065,1.127c0.734,0,1.675-1.295,2.253-2.066
		c0.533-0.709,0.553-2.209,0.751-3.004c0.311-1.24,0.844-1.664,1.878-2.44c0.713-0.534,1.355-0.993,1.878-1.689
		c0.619-0.825,0.563-2.358,0.563-3.38c0-0.938,0-1.877,0-2.816c0-0.908,0.376-1.776,0.376-2.816c0-1.264,0.762-1.744,1.689-2.44
		c1.009-0.757,3.066-0.376,4.318-0.376c2.494,0,1.923-0.304,3.567-1.126c1.294-0.647,2.016-1.323,3.004-2.065
		c0.726-0.544,3.972,0,5.258,0c0.876,0,1.752,0,2.628,0 M355.707,350.574c1.131,0,1.973,0.939,3.191,0.939
		c1.491,0,1.114-0.363,1.878-1.127c0.592-0.592,0.851-1.326,1.126-1.877"/>
</g>

        </svg>
